<?xml version="1.0" encoding="us-ascii" standalone="no"?><svg xmlns="http://www.w3.org/2000/svg" xmlns:xlink="http://www.w3.org/1999/xlink" contentStyleType="text/css" height="363px" preserveAspectRatio="none" style="width:820px;height:363px;background:#FFFFFF;" version="1.1" viewBox="0 0 820 363" width="820px" zoomAndPan="magnify"><defs/><g><!--cluster ManagementCluster--><g id="cluster_ManagementCluster"><rect fill="none" height="132" rx="2.5" ry="2.5" style="stroke:#181818;stroke-width:1.0;" width="354" x="157" y="90.2422"/><rect fill="none" height="10" style="stroke:#181818;stroke-width:1.0;" width="15" x="491" y="95.2422"/><rect fill="none" height="2" style="stroke:#181818;stroke-width:1.0;" width="4" x="489" y="97.2422"/><rect fill="none" height="2" style="stroke:#181818;stroke-width:1.0;" width="4" x="489" y="101.2422"/><text fill="#000000" font-family="sans-serif" font-size="14" font-weight="bold" lengthAdjust="spacing" textLength="144" x="262" y="116.7773">ManagementCluster</text></g><!--cluster Infrastructure--><g id="cluster_Infrastructure"><rect fill="none" height="215" rx="2.5" ry="2.5" style="stroke:#181818;stroke-width:1.0;" width="271" x="543" y="39.2422"/><rect fill="none" height="10" style="stroke:#181818;stroke-width:1.0;" width="15" x="794" y="44.2422"/><rect fill="none" height="2" style="stroke:#181818;stroke-width:1.0;" width="4" x="792" y="46.2422"/><rect fill="none" height="2" style="stroke:#181818;stroke-width:1.0;" width="4" x="792" y="50.2422"/><text fill="#000000" font-family="sans-serif" font-size="14" font-weight="bold" lengthAdjust="spacing" textLength="99" x="629" y="65.7773">Infrastructure</text></g><!--cluster WorkloadCluster--><g id="cluster_WorkloadCluster"><rect fill="none" height="132" rx="2.5" ry="2.5" style="stroke:#181818;stroke-width:1.0;" width="207" x="575" y="90.2422"/><rect fill="none" height="10" style="stroke:#181818;stroke-width:1.0;" width="15" x="762" y="95.2422"/><rect fill="none" height="2" style="stroke:#181818;stroke-width:1.0;" width="4" x="760" y="97.2422"/><rect fill="none" height="2" style="stroke:#181818;stroke-width:1.0;" width="4" x="760" y="101.2422"/><text fill="#000000" font-family="sans-serif" font-size="14" font-weight="bold" lengthAdjust="spacing" textLength="120" x="618.5" y="116.7773">WorkloadCluster</text></g><!--entity capi--><g id="elem_capi"><rect fill="#F1F1F1" height="46.4883" rx="2.5" ry="2.5" style="stroke:#181818;stroke-width:0.5;" width="111" x="375.5" y="152.2422"/><rect fill="#F1F1F1" height="10" style="stroke:#181818;stroke-width:0.5;" width="15" x="466.5" y="157.2422"/><rect fill="#F1F1F1" height="2" style="stroke:#181818;stroke-width:0.5;" width="4" x="464.5" y="159.2422"/><rect fill="#F1F1F1" height="2" style="stroke:#181818;stroke-width:0.5;" width="4" x="464.5" y="163.2422"/><text fill="#000000" font-family="sans-serif" font-size="14" lengthAdjust="spacing" textLength="71" x="390.5" y="185.7773">ClusterAPI</text></g><!--entity kapi1--><g id="elem_kapi1"><rect fill="#F1F1F1" height="46.4883" rx="2.5" ry="2.5" style="stroke:#181818;stroke-width:0.5;" width="140" x="200" y="152.2422"/><rect fill="#F1F1F1" height="10" style="stroke:#181818;stroke-width:0.5;" width="15" x="320" y="157.2422"/><rect fill="#F1F1F1" height="2" style="stroke:#181818;stroke-width:0.5;" width="4" x="318" y="159.2422"/><rect fill="#F1F1F1" height="2" style="stroke:#181818;stroke-width:0.5;" width="4" x="318" y="163.2422"/><text fill="#000000" font-family="sans-serif" font-size="14" lengthAdjust="spacing" textLength="100" x="215" y="185.7773">KubernetesAPI</text></g><!--entity kapi2--><g id="elem_kapi2"><rect fill="#F1F1F1" height="46.4883" rx="2.5" ry="2.5" style="stroke:#181818;stroke-width:0.5;" width="140" x="618" y="152.2422"/><rect fill="#F1F1F1" height="10" style="stroke:#181818;stroke-width:0.5;" width="15" x="738" y="157.2422"/><rect fill="#F1F1F1" height="2" style="stroke:#181818;stroke-width:0.5;" width="4" x="736" y="159.2422"/><rect fill="#F1F1F1" height="2" style="stroke:#181818;stroke-width:0.5;" width="4" x="736" y="163.2422"/><text fill="#000000" font-family="sans-serif" font-size="14" lengthAdjust="spacing" textLength="100" x="633" y="185.7773">KubernetesAPI</text></g><!--entity User--><g id="elem_User"><ellipse cx="59" cy="145.7422" fill="#F1F1F1" rx="8" ry="8" style="stroke:#181818;stroke-width:0.5;"/><path d="M59,153.7422 L59,180.7422 M46,161.7422 L72,161.7422 M59,180.7422 L46,195.7422 M59,180.7422 L72,195.7422 " fill="none" style="stroke:#181818;stroke-width:0.5;"/><text fill="#000000" font-family="sans-serif" font-size="14" lengthAdjust="spacing" textLength="31" x="43.5" y="210.7773">User</text></g><!--entity manifest--><g id="elem_manifest"><path d="M8.5,317.2422 L85.5,317.2422 A3.75,3.75 0 0 1 88,319.7422 L95,339.7305 L109.5,339.7305 A2.5,2.5 0 0 1 112,342.2305 L112,354.2305 A2.5,2.5 0 0 1 109.5,356.7305 L8.5,356.7305 A2.5,2.5 0 0 1 6,354.2305 L6,319.7422 A2.5,2.5 0 0 1 8.5,317.2422 " fill="#F1F1F1" style="stroke:#181818;stroke-width:0.5;"/><line style="stroke:#181818;stroke-width:0.5;" x1="6" x2="95" y1="339.7305" y2="339.7305"/><text fill="#000000" font-family="sans-serif" font-size="14" font-weight="bold" lengthAdjust="spacing" textLength="64" x="16" y="333.7773">manifest</text></g><!--link User to manifest--><g id="link_User_manifest"><path d="M59,213.6422 C59,246.0522 59,285.6122 59,310.9222 " fill="none" id="User-to-manifest" style="stroke:#181818;stroke-width:1.0;"/><polygon fill="#181818" points="59,316.9222,63,307.9222,59,311.9222,55,307.9222,59,316.9222" style="stroke:#181818;stroke-width:1.0;"/><text fill="#000000" font-family="sans-serif" font-size="13" lengthAdjust="spacing" textLength="54" x="60" y="283.8105">2. create</text></g><!--link User to kapi1--><g id="link_User_kapi1"><path d="M74.85,138.2922 C98.27,89.3322 144.88,12.4622 196,42.4922 C236.27,66.1522 254.6624,114.7606 263.1424,146.0906 " fill="none" id="User-to-kapi1" style="stroke:#181818;stroke-width:1.0;"/><polygon fill="#181818" points="264.71,151.8822,266.2197,142.1497,263.4037,147.0559,258.4975,144.2398,264.71,151.8822" style="stroke:#181818;stroke-width:1.0;"/><text fill="#000000" font-family="sans-serif" font-size="13" lengthAdjust="spacing" textLength="109" x="82.5" y="19.8105">3. apply manifest</text></g><!--link kapi1 to capi--><g id="link_kapi1_capi"><path d="M340.44,175.2422 C351.99,175.2422 357.55,175.2422 369.11,175.2422 " fill="none" id="kapi1-to-capi" style="stroke:#181818;stroke-width:1.0;"/><polygon fill="#181818" points="375.11,175.2422,366.11,171.2422,370.11,175.2422,366.11,179.2422,375.11,175.2422" style="stroke:#181818;stroke-width:1.0;"/></g><!--link capi to WorkloadCluster--><g id="link_capi_WorkloadCluster"><path d="M486.74,175.2422 C507.075,175.2422 529.4975,175.2422 547.5825,175.2422 C556.625,175.2422 564.5831,175.2422 570.6538,175.2422 C572.1714,175.2422 567.5711,175.2422 568.8403,175.2422 " fill="none" id="capi-to-WorkloadCluster" style="stroke:#181818;stroke-width:1.0;"/><polygon fill="#181818" points="574.8403,175.2422,565.8403,171.2422,569.8403,175.2422,565.8403,179.2422,574.8403,175.2422" style="stroke:#181818;stroke-width:1.0;"/><text fill="#000000" font-family="sans-serif" font-size="13" lengthAdjust="spacing" textLength="54" x="507.57" y="191.8105">4. create</text></g><!--link User to ManagementCluster--><g id="link_User_ManagementCluster"><path d="M74.64,175.2422 C88.46,175.2422 109.1775,175.2422 127.29,175.2422 C136.3463,175.2422 144.7513,175.2422 151.3172,175.2422 C152.9587,175.2422 154.4852,175.2422 155.8783,175.2422 C156.2265,175.2422 150.5664,175.2422 150.8977,175.2422 " fill="none" id="User-to-ManagementCluster" style="stroke:#181818;stroke-width:1.0;"/><polygon fill="#181818" points="156.8977,175.2422,147.8977,171.2422,151.8977,175.2422,147.8977,179.2422,156.8977,175.2422" style="stroke:#181818;stroke-width:1.0;"/><text fill="#000000" font-family="sans-serif" font-size="13" lengthAdjust="spacing" textLength="54" x="92.57" y="168.8105">1. create</text></g><!--SRC=[ZP0_2y8m4CLtFyN3lGN_J1qAubH4S17dCrv5sYRXaWuYVdVRM8ks7PnooVlbtkC102bl14V7CcjkiAGAkZ8gqhUSdG-FobJMQDOUUzADMZNZjgoTPy4Z4B_Kl1CtXsmESb1aRrFOhZwpQFRiFcJHa8k0FWVEcSw5d9TQ-LfuqlPaf2WDNSRH_l9TzlYpIn2EjXf4KTfNac0PGmcJvoyWVMTFi8f1rfRttmg36ALz4-tGVXfaJh2Ut3tgFS6Y1ry0]--></g></svg>