<?xml version="1.0" encoding="us-ascii" standalone="no"?><svg xmlns="http://www.w3.org/2000/svg" xmlns:xlink="http://www.w3.org/1999/xlink" contentStyleType="text/css" height="1719px" preserveAspectRatio="none" style="width:878px;height:1719px;background:#FFFFFF;" version="1.1" viewBox="0 0 878 1719" width="878px" zoomAndPan="magnify"><defs/><g><!--cluster python-tackerclient--><g id="cluster_python-tackerclient"><rect fill="none" height="286" rx="2.5" ry="2.5" style="stroke:#181818;stroke-width:1.0;" width="715" x="7" y="7"/><path d="M160,7 L160,16.4883 L150,26.4883 L7,26.4883 " fill="none" style="stroke:#181818;stroke-width:1.0;"/><text fill="#000000" font-family="sans-serif" font-size="14" font-weight="bold" lengthAdjust="spacing" textLength="143" x="10" y="21.5352">python-tackerclient</text></g><!--cluster client--><g id="cluster_client"><rect fill="none" height="219" rx="2.5" ry="2.5" style="stroke:#181818;stroke-width:1.0;" width="667" x="31" y="50"/><rect fill="none" height="10" style="stroke:#181818;stroke-width:1.0;" width="15" x="678" y="55"/><rect fill="none" height="2" style="stroke:#181818;stroke-width:1.0;" width="4" x="676" y="57"/><rect fill="none" height="2" style="stroke:#181818;stroke-width:1.0;" width="4" x="676" y="61"/><text fill="#000000" font-family="sans-serif" font-size="14" font-weight="bold" lengthAdjust="spacing" textLength="93" x="318" y="76.5352">tacker-client</text></g><!--cluster vnfpkg--><g id="cluster_vnfpkg"><path d="M174.5,101 L267.5,101 A3.75,3.75 0 0 1 270,103.5 L277,123.4883 L663.5,123.4883 A2.5,2.5 0 0 1 666,125.9883 L666,234.5 A2.5,2.5 0 0 1 663.5,237 L174.5,237 A2.5,2.5 0 0 1 172,234.5 L172,103.5 A2.5,2.5 0 0 1 174.5,101 " fill="none" style="stroke:#000000;stroke-width:1.5;"/><line style="stroke:#000000;stroke-width:1.5;" x1="172" x2="277" y1="123.4883" y2="123.4883"/><text fill="#000000" font-family="sans-serif" font-size="14" font-weight="bold" lengthAdjust="spacing" textLength="92" x="176" y="116.5352">VNF Package</text></g><!--cluster tacker--><g id="cluster_tacker"><rect fill="none" height="542" rx="2.5" ry="2.5" style="stroke:#181818;stroke-width:1.0;" width="212" x="22" y="357"/><path d="M76,357 L76,366.4883 L66,376.4883 L22,376.4883 " fill="none" style="stroke:#181818;stroke-width:1.0;"/><text fill="#000000" font-family="sans-serif" font-size="14" font-weight="bold" lengthAdjust="spacing" textLength="44" x="25" y="371.5352">tacker</text></g><!--cluster tacker-server--><g id="cluster_tacker-server"><rect fill="none" height="97" rx="2.5" ry="2.5" style="stroke:#181818;stroke-width:1.0;" width="116" x="70" y="400"/><rect fill="none" height="10" style="stroke:#181818;stroke-width:1.0;" width="15" x="166" y="405"/><rect fill="none" height="2" style="stroke:#181818;stroke-width:1.0;" width="4" x="164" y="407"/><rect fill="none" height="2" style="stroke:#181818;stroke-width:1.0;" width="4" x="164" y="411"/><text fill="#000000" font-family="sans-serif" font-size="14" font-weight="bold" lengthAdjust="spacing" textLength="97" x="79.5" y="426.5352">tacker-server</text></g><!--cluster tacker-conductor--><g id="cluster_tacker-conductor"><rect fill="none" height="345" rx="2.5" ry="2.5" style="stroke:#181818;stroke-width:1.0;" width="164" x="46" y="530"/><rect fill="none" height="10" style="stroke:#181818;stroke-width:1.0;" width="15" x="190" y="535"/><rect fill="none" height="2" style="stroke:#181818;stroke-width:1.0;" width="4" x="188" y="537"/><rect fill="none" height="2" style="stroke:#181818;stroke-width:1.0;" width="4" x="188" y="541"/><text fill="#000000" font-family="sans-serif" font-size="14" font-weight="bold" lengthAdjust="spacing" textLength="124" x="66" y="556.5352">tacker-conductor</text></g><!--cluster mgmt--><g id="cluster_mgmt"><rect fill="none" height="368" rx="2.5" ry="2.5" style="stroke:#181818;stroke-width:1.0;" width="271" x="206" y="971"/><path d="M365,971 L365,980.4883 L355,990.4883 L206,990.4883 " fill="none" style="stroke:#181818;stroke-width:1.0;"/><text fill="#000000" font-family="sans-serif" font-size="14" font-weight="bold" lengthAdjust="spacing" textLength="149" x="209" y="985.5352">Management Cluster</text></g><!--cluster k8s_m_m--><g id="cluster_k8s_m_m"><polygon fill="none" points="246,1040,256,1030,429,1030,429,1138,419,1148,246,1148,246,1040" style="stroke:#181818;stroke-width:1.0;"/><line style="stroke:#181818;stroke-width:1.0;" x1="419" x2="429" y1="1040" y2="1030"/><line style="stroke:#181818;stroke-width:1.0;" x1="246" x2="419" y1="1040" y2="1040"/><line style="stroke:#181818;stroke-width:1.0;" x1="419" x2="419" y1="1040" y2="1148"/><text fill="#000000" font-family="sans-serif" font-size="14" font-weight="bold" lengthAdjust="spacing" textLength="98" x="284.5" y="1056.5352">Control Plane</text></g><!--cluster k8s_m_w--><g id="cluster_k8s_m_w"><polygon fill="none" points="238,1215,248,1205,365,1205,365,1297,355,1307,238,1307,238,1215" style="stroke:#181818;stroke-width:1.0;"/><line style="stroke:#181818;stroke-width:1.0;" x1="355" x2="365" y1="1215" y2="1205"/><line style="stroke:#181818;stroke-width:1.0;" x1="238" x2="355" y1="1215" y2="1215"/><line style="stroke:#181818;stroke-width:1.0;" x1="355" x2="355" y1="1215" y2="1307"/><text fill="#000000" font-family="sans-serif" font-size="14" font-weight="bold" lengthAdjust="spacing" textLength="51" x="272" y="1231.5352">Worker</text></g><!--cluster hw_w--><g id="cluster_hw_w"><path d="M275.547,1407.1132 C280.5321,1396.6683 287.1186,1395.6879 295.8245,1402.821 C301.0686,1393.1855 308.5923,1393.2795 314.2859,1402.3778 C318.2538,1393.9468 326.9592,1391.5092 333.2482,1399.7355 C340.5744,1389.9953 347.2438,1388.7456 354.7249,1399.5738 C358.2906,1389.9708 364.9331,1386.3287 373.0513,1395.0111 C379.3157,1384.6588 387.6539,1385.7608 394.0694,1394.8477 C398.5326,1384.6902 407.7171,1384.3576 413.1657,1393.8921 C420.225,1385.8056 427.542,1386.063 432.0671,1396.4808 C439.5125,1388.9998 446.0093,1390.6642 450.3593,1399.8734 C457.7473,1387.6014 466.5574,1389.592 473.2945,1400.5169 C479.6983,1392.7962 487.3295,1394.7211 490.8698,1403.5566 C502.1955,1395.0975 510.8731,1398.5308 516,1411 C517.4231,1410.4427 518.7588,1411.1306 518.5296,1412.8422 C528.3827,1418.4155 528.8366,1428.1063 517.6762,1432.7803 C529.2218,1436.9985 527.3291,1447.4317 519.357,1453.2524 C529.0875,1458.8722 528.1261,1465.2325 519.7419,1471.2399 C528.7509,1476.7447 528.3449,1485.3026 520.051,1491.0769 C530.0502,1495.7995 528.3843,1504.0509 520.9278,1509.5998 C531.7285,1516.2896 531.0585,1523.2816 522.8608,1531.6377 C528.8608,1537.9608 529.1244,1543.2076 521.0883,1548.0112 C532.1331,1552.4341 532.8911,1562.6545 523.7555,1569.5737 C533.5465,1577.6472 530.3127,1584.737 520.3217,1589.3812 C531.069,1594.7689 531.9596,1600.9119 522.2648,1608.3894 C530.7664,1614.7212 528.021,1623.3303 519.0306,1626.5464 C526.581,1632.8973 528.7124,1638.6423 519.141,1645.095 C529.6473,1652.7389 530.0208,1659.8644 519.9779,1668.2509 C526.3381,1678.3708 524.0169,1691.196 509,1691 C510.3051,1690.8288 511.0903,1691.559 510.5349,1692.8948 C506.4903,1701.5572 499.6355,1703.4152 492.7456,1696.0538 C488.0241,1705.6057 478.5101,1705.1068 472.763,1697.2297 C467.5795,1705.4436 460.1932,1706.3808 453.838,1698.6175 C447.6369,1709.9936 439.4929,1710.8876 431.4719,1700.4867 C426.5026,1709.7481 421.0454,1710.4399 414.7821,1701.6855 C410.246,1712.4459 400.4882,1712.6133 393.9135,1703.8664 C386.339,1711.8649 380.0422,1710.2847 374.3013,1701.6981 C367.3093,1709.7707 359.7525,1709.4657 353.5125,1700.766 C347.1907,1710.0105 340.2451,1709.6841 335.2476,1699.5197 C328.6153,1709.8238 319.9513,1708.8357 315.2477,1697.719 C307.4049,1708.1827 298.6405,1706.3535 293.6168,1694.9326 C281.3005,1705.3915 267.9655,1701.1759 267,1684 C268.9881,1684.5304 269.5264,1685.7285 268.3568,1687.4874 C258.088,1680.1785 260.8324,1674.2408 269.4592,1668.0009 C257.7604,1663.9136 259.1576,1654.7905 266.622,1647.9866 C254.8977,1642.533 256.0915,1636.1232 263.8991,1628.0076 C252.8977,1622.4095 254.6798,1613.1705 263.7107,1607.3893 C255.1951,1601.0226 255.166,1592.643 264.3181,1586.7976 C256.3592,1582.0029 255.4956,1572.9238 263.585,1567.5188 C254.7836,1564.3787 252.1664,1555.8276 260.616,1549.7973 C249.8676,1542.7372 249.5448,1535.454 260.5075,1528.2843 C252.656,1521.8449 255.0955,1514.989 263.1718,1511.0056 C254.8258,1506.1341 252.8056,1497.2025 262.8811,1492.0484 C252.4527,1482.4043 254.2818,1475.3929 266.8921,1469.9258 C258.8598,1463.9783 257.5955,1456.9034 266.3857,1450.517 C256.4176,1444.1779 258.7642,1435.5081 268.4108,1431.2283 C256.8351,1419.6115 258.5676,1410.0728 274,1404 C275.8876,1404.0773 276.5345,1405.6072 275.547,1407.1132 " fill="none" style="stroke:#181818;stroke-width:1.0;"/><text fill="#000000" font-family="sans-serif" font-size="14" font-weight="bold" lengthAdjust="spacing" textLength="146" x="318.5" y="1422.5352">Hardware Resources</text></g><!--cluster wkld--><g id="cluster_wkld"><rect fill="none" height="220" rx="2.5" ry="2.5" style="stroke:#181818;stroke-width:1.0;" width="201" x="291" y="1447"/><path d="M426,1447 L426,1456.4883 L416,1466.4883 L291,1466.4883 " fill="none" style="stroke:#181818;stroke-width:1.0;"/><text fill="#000000" font-family="sans-serif" font-size="14" font-weight="bold" lengthAdjust="spacing" textLength="125" x="294" y="1461.5352">Workload Cluster</text></g><!--entity inst_param--><g id="elem_inst_param"><path d="M47,154.5 L47,202.4766 A2.5,2.5 0 0 0 49.5,204.9766 L142.5,204.9766 A2.5,2.5 0 0 0 145,202.4766 L145,162 L135,152 L49.5,152 A2.5,2.5 0 0 0 47,154.5 " fill="#F1F1F1" style="stroke:#181818;stroke-width:0.5;"/><path d="M135,152 L135,159.5 A2.5,2.5 0 0 0 137.5,162 L145,162 " fill="#F1F1F1" style="stroke:#181818;stroke-width:0.5;"/><text fill="#000000" font-family="sans-serif" font-size="14" lengthAdjust="spacing" textLength="72" x="57" y="175.5352">Instantiate</text><text fill="#000000" font-family="sans-serif" font-size="14" lengthAdjust="spacing" textLength="78" x="57" y="192.0234">parameters</text></g><!--entity vnfd--><g id="elem_vnfd"><path d="M215.5,163 L215.5,194.4883 A2.5,2.5 0 0 0 218,196.9883 L270,196.9883 A2.5,2.5 0 0 0 272.5,194.4883 L272.5,170.5 L262.5,160.5 L218,160.5 A2.5,2.5 0 0 0 215.5,163 " fill="#F1F1F1" style="stroke:#181818;stroke-width:0.5;"/><path d="M262.5,160.5 L262.5,168 A2.5,2.5 0 0 0 265,170.5 L272.5,170.5 " fill="#F1F1F1" style="stroke:#181818;stroke-width:0.5;"/><text fill="#000000" font-family="sans-serif" font-size="14" lengthAdjust="spacing" textLength="37" x="225.5" y="184.0352">VNFD</text></g><!--entity cnfd--><g id="elem_cnfd"><path d="M307.5,154.5 L307.5,202.4766 A2.5,2.5 0 0 0 310,204.9766 L444,204.9766 A2.5,2.5 0 0 0 446.5,202.4766 L446.5,162 L436.5,152 L310,152 A2.5,2.5 0 0 0 307.5,154.5 " fill="#F1F1F1" style="stroke:#181818;stroke-width:0.5;"/><path d="M436.5,152 L436.5,159.5 A2.5,2.5 0 0 0 439,162 L446.5,162 " fill="#F1F1F1" style="stroke:#181818;stroke-width:0.5;"/><text fill="#000000" font-family="sans-serif" font-size="14" lengthAdjust="spacing" textLength="119" x="317.5" y="175.5352">CNF (k8s Cluster)</text><text fill="#000000" font-family="sans-serif" font-size="14" lengthAdjust="spacing" textLength="67" x="317.5" y="192.0234">Definition</text></g><!--entity mgmtd--><g id="elem_mgmtd"><path d="M482,146.5 L482,210.9648 A2.5,2.5 0 0 0 484.5,213.4648 L639.5,213.4648 A2.5,2.5 0 0 0 642,210.9648 L642,154 L632,144 L484.5,144 A2.5,2.5 0 0 0 482,146.5 " fill="#F1F1F1" style="stroke:#181818;stroke-width:0.5;"/><path d="M632,144 L632,151.5 A2.5,2.5 0 0 0 634.5,154 L642,154 " fill="#F1F1F1" style="stroke:#181818;stroke-width:0.5;"/><text fill="#000000" font-family="sans-serif" font-size="14" lengthAdjust="spacing" textLength="70" x="492" y="167.5352">Scripts for</text><text fill="#000000" font-family="sans-serif" font-size="14" lengthAdjust="spacing" textLength="134" x="496" y="184.0234">Management Driver</text><text fill="#000000" font-family="sans-serif" font-size="14" lengthAdjust="spacing" textLength="140" x="492" y="200.5117">(Credentials Sender)</text></g><!--entity serv--><g id="elem_serv"><rect fill="#F1F1F1" height="46.4883" rx="2.5" ry="2.5" style="stroke:#181818;stroke-width:0.5;" width="83" x="86.5" y="435"/><rect fill="#F1F1F1" height="10" style="stroke:#181818;stroke-width:0.5;" width="15" x="149.5" y="440"/><rect fill="#F1F1F1" height="2" style="stroke:#181818;stroke-width:0.5;" width="4" x="147.5" y="442"/><rect fill="#F1F1F1" height="2" style="stroke:#181818;stroke-width:0.5;" width="4" x="147.5" y="446"/><text fill="#000000" font-family="sans-serif" font-size="14" lengthAdjust="spacing" textLength="43" x="101.5" y="468.5352">Server</text></g><!--entity cond--><g id="elem_cond"><rect fill="#F1F1F1" height="46.4883" rx="2.5" ry="2.5" style="stroke:#181818;stroke-width:0.5;" width="113" x="71.5" y="565"/><rect fill="#F1F1F1" height="10" style="stroke:#181818;stroke-width:0.5;" width="15" x="164.5" y="570"/><rect fill="#F1F1F1" height="2" style="stroke:#181818;stroke-width:0.5;" width="4" x="162.5" y="572"/><rect fill="#F1F1F1" height="2" style="stroke:#181818;stroke-width:0.5;" width="4" x="162.5" y="576"/><text fill="#000000" font-family="sans-serif" font-size="14" lengthAdjust="spacing" textLength="73" x="86.5" y="598.5352">Conductor</text></g><!--entity vld--><g id="elem_vld"><rect fill="#F1F1F1" height="46.4883" rx="2.5" ry="2.5" style="stroke:#181818;stroke-width:0.5;" width="131" x="62.5" y="680.5"/><rect fill="#F1F1F1" height="10" style="stroke:#181818;stroke-width:0.5;" width="15" x="173.5" y="685.5"/><rect fill="#F1F1F1" height="2" style="stroke:#181818;stroke-width:0.5;" width="4" x="171.5" y="687.5"/><rect fill="#F1F1F1" height="2" style="stroke:#181818;stroke-width:0.5;" width="4" x="171.5" y="691.5"/><text fill="#000000" font-family="sans-serif" font-size="14" lengthAdjust="spacing" textLength="91" x="77.5" y="714.0352">Vnflcm driver</text></g><!--entity infra--><g id="elem_infra"><rect fill="#F1F1F1" height="62.9766" rx="2.5" ry="2.5" style="stroke:#181818;stroke-width:0.5;" width="120" x="72" y="796"/><rect fill="#F1F1F1" height="10" style="stroke:#181818;stroke-width:0.5;" width="15" x="172" y="801"/><rect fill="#F1F1F1" height="2" style="stroke:#181818;stroke-width:0.5;" width="4" x="170" y="803"/><rect fill="#F1F1F1" height="2" style="stroke:#181818;stroke-width:0.5;" width="4" x="170" y="807"/><text fill="#000000" font-family="sans-serif" font-size="14" lengthAdjust="spacing" textLength="78" x="87" y="829.5352">Kubernetes</text><text fill="#000000" font-family="sans-serif" font-size="14" lengthAdjust="spacing" textLength="80" x="87" y="846.0234">infra-driver</text></g><!--entity capi--><g id="elem_capi"><polygon fill="#F1F1F1" points="289.5,1088,299.5,1078,404.5,1078,404.5,1114.4883,394.5,1124.4883,289.5,1124.4883,289.5,1088" style="stroke:#181818;stroke-width:0.5;"/><line style="stroke:#181818;stroke-width:0.5;" x1="394.5" x2="404.5" y1="1088" y2="1078"/><line style="stroke:#181818;stroke-width:0.5;" x1="289.5" x2="394.5" y1="1088" y2="1088"/><line style="stroke:#181818;stroke-width:0.5;" x1="394.5" x2="394.5" y1="1088" y2="1124.4883"/><text fill="#000000" font-family="sans-serif" font-size="14" lengthAdjust="spacing" textLength="75" x="304.5" y="1111.5352">Cluster API</text></g><!--entity cluster--><g id="elem_cluster"><polygon fill="#F1F1F1" points="254.5,1255,264.5,1245,343.5,1245,343.5,1281.4883,333.5,1291.4883,254.5,1291.4883,254.5,1255" style="stroke:#181818;stroke-width:0.5;"/><line style="stroke:#181818;stroke-width:0.5;" x1="333.5" x2="343.5" y1="1255" y2="1245"/><line style="stroke:#181818;stroke-width:0.5;" x1="254.5" x2="333.5" y1="1255" y2="1255"/><line style="stroke:#181818;stroke-width:0.5;" x1="333.5" x2="333.5" y1="1255" y2="1291.4883"/><text fill="#000000" font-family="sans-serif" font-size="14" lengthAdjust="spacing" textLength="49" x="269.5" y="1278.5352">Cluster</text></g><!--entity k8s_w_m--><g id="elem_k8s_w_m"><polygon fill="#F1F1F1" points="334.5,1500,344.5,1490,467.5,1490,467.5,1526.4883,457.5,1536.4883,334.5,1536.4883,334.5,1500" style="stroke:#181818;stroke-width:0.5;"/><line style="stroke:#181818;stroke-width:0.5;" x1="457.5" x2="467.5" y1="1500" y2="1490"/><line style="stroke:#181818;stroke-width:0.5;" x1="334.5" x2="457.5" y1="1500" y2="1500"/><line style="stroke:#181818;stroke-width:0.5;" x1="457.5" x2="457.5" y1="1500" y2="1536.4883"/><text fill="#000000" font-family="sans-serif" font-size="14" lengthAdjust="spacing" textLength="93" x="349.5" y="1523.5352">Control Plane</text></g><!--entity k8s_w_w--><g id="elem_k8s_w_w"><polygon fill="#F1F1F1" points="356.5,1607,366.5,1597,445.5,1597,445.5,1633.4883,435.5,1643.4883,356.5,1643.4883,356.5,1607" style="stroke:#181818;stroke-width:0.5;"/><line style="stroke:#181818;stroke-width:0.5;" x1="435.5" x2="445.5" y1="1607" y2="1597"/><line style="stroke:#181818;stroke-width:0.5;" x1="356.5" x2="435.5" y1="1607" y2="1607"/><line style="stroke:#181818;stroke-width:0.5;" x1="435.5" x2="435.5" y1="1607" y2="1643.4883"/><text fill="#000000" font-family="sans-serif" font-size="14" lengthAdjust="spacing" textLength="49" x="371.5" y="1630.5352">Worker</text></g><!--entity w--><g id="elem_w"><rect fill="#F1F1F1" height="46.4883" rx="2.5" ry="2.5" style="stroke:#181818;stroke-width:0.5;" width="116" x="756" y="680.5"/><rect fill="#F1F1F1" height="10" style="stroke:#181818;stroke-width:0.5;" width="15" x="852" y="685.5"/><rect fill="#F1F1F1" height="2" style="stroke:#181818;stroke-width:0.5;" width="4" x="850" y="687.5"/><rect fill="#F1F1F1" height="2" style="stroke:#181818;stroke-width:0.5;" width="4" x="850" y="691.5"/><text fill="#000000" font-family="sans-serif" font-size="14" lengthAdjust="spacing" textLength="76" x="771" y="714.0352">Web Server</text></g><!--entity mgmtdi--><g id="elem_mgmtdi"><rect fill="#F1F1F1" height="62.9766" rx="2.5" ry="2.5" style="stroke:#181818;stroke-width:0.5;" width="180" x="420" y="672"/><rect fill="#F1F1F1" height="10" style="stroke:#181818;stroke-width:0.5;" width="15" x="580" y="677"/><rect fill="#F1F1F1" height="2" style="stroke:#181818;stroke-width:0.5;" width="4" x="578" y="679"/><rect fill="#F1F1F1" height="2" style="stroke:#181818;stroke-width:0.5;" width="4" x="578" y="683"/><text fill="#000000" font-family="sans-serif" font-size="14" lengthAdjust="spacing" textLength="134" x="435" y="705.5352">Management Driver</text><text fill="#000000" font-family="sans-serif" font-size="14" lengthAdjust="spacing" textLength="140" x="435" y="722.0234">(Credentials Sender)</text></g><!--link vnfd to cnfd--><!--link cnfd to mgmtd--><!--link vnfpkg to serv--><g id="link_vnfpkg_serv"><path d="M181.5904,237.0781 C181.5838,237.5731 181.5766,238.0702 181.5688,238.5691 C181.5532,239.567 181.5354,240.5725 181.5152,241.5852 C181.4748,243.6107 181.4248,245.6649 181.3643,247.7447 C181.2433,251.9042 181.0802,256.1658 180.8673,260.5029 C180.4416,269.1771 179.8168,278.1535 178.9314,287.2198 C177.1606,305.3525 174.3475,323.845 170,341 C161.53,374.43 149.3945,406.1461 139.8545,429.1961 " fill="none" id="vnfpkg-to-serv" style="stroke:#181818;stroke-width:1.0;"/><polygon fill="#181818" points="137.56,434.74,144.6978,427.9538,139.4721,430.1201,137.3059,424.8944,137.56,434.74" style="stroke:#181818;stroke-width:1.0;"/><text fill="#000000" font-family="sans-serif" font-size="13" lengthAdjust="spacing" textLength="66" x="179.5" y="322.5684">1. Request</text><text fill="#000000" font-family="sans-serif" font-size="13" lengthAdjust="spacing" textLength="67" x="181" y="337.8789">create VNF</text></g><!--link inst_param to serv--><g id="link_inst_param_serv"><path d="M83.73,205.44 C70.18,237.51 51.81,293.67 64,341 C73.12,376.42 92.1436,407.6856 107.8736,430.0056 " fill="none" id="inst_param-to-serv" style="stroke:#181818;stroke-width:1.0;"/><polygon fill="#181818" points="111.33,434.91,109.415,425.2491,108.4497,430.823,102.8758,429.8576,111.33,434.91" style="stroke:#181818;stroke-width:1.0;"/><text fill="#000000" font-family="sans-serif" font-size="13" lengthAdjust="spacing" textLength="66" x="82" y="322.5684">2. Request</text><text fill="#000000" font-family="sans-serif" font-size="13" lengthAdjust="spacing" textLength="96" x="69" y="337.8789">instantiate VNF</text></g><!--link serv to cond--><g id="link_serv_cond"><path d="M128,481.3 C128,504.65 128,535.11 128,558.53 " fill="none" id="serv-to-cond" style="stroke:#181818;stroke-width:1.0;"/><polygon fill="#181818" points="128,564.53,132,555.53,128,559.53,124,555.53,128,564.53" style="stroke:#181818;stroke-width:1.0;"/></g><!--link cond to vld--><g id="link_cond_vld"><path d="M128,611.42 C128,631.32 128,654.24 128,674.12 " fill="none" id="cond-to-vld" style="stroke:#181818;stroke-width:1.0;"/><polygon fill="#181818" points="128,680.12,132,671.12,128,675.12,124,671.12,128,680.12" style="stroke:#181818;stroke-width:1.0;"/></g><!--link vld to infra--><g id="link_vld_infra"><path d="M128.73,726.88 C129.37,746.14 130.0839,768.1332 130.7839,789.5432 " fill="none" id="vld-to-infra" style="stroke:#181818;stroke-width:1.0;"/><polygon fill="#181818" points="130.98,795.54,134.6838,786.4141,130.8166,790.5427,126.688,786.6755,130.98,795.54" style="stroke:#181818;stroke-width:1.0;"/></g><!--link infra to k8s_m_m--><g id="link_infra_k8s_m_m"><path d="M145.88,859.38 C161.615,894.405 188.0525,953.2425 210.845,1003.9675 C222.2412,1029.33 232.7263,1052.6644 240.5066,1069.98 C242.4516,1074.3089 241.7686,1072.7887 243.3476,1076.3029 " fill="none" id="infra-to-k8s_m_m" style="stroke:#181818;stroke-width:1.0;"/><polygon fill="#181818" points="245.8066,1081.7758,245.7667,1071.9271,243.7574,1077.2151,238.4694,1075.2058,245.8066,1081.7758" style="stroke:#181818;stroke-width:1.0;"/><text fill="#000000" font-family="sans-serif" font-size="13" lengthAdjust="spacing" textLength="114" x="183" y="928.5684">3. Call Kubernetes</text><text fill="#000000" font-family="sans-serif" font-size="13" lengthAdjust="spacing" textLength="20" x="232" y="943.8789">API</text></g><!--link capi to cluster--><g id="link_capi_cluster"><path d="M340.53,1124.25 C331.37,1155.74 316.3865,1207.229 307.1965,1238.809 " fill="none" id="capi-to-cluster" style="stroke:#181818;stroke-width:1.0;"/><polygon fill="#181818" points="305.52,1244.57,311.8754,1237.0461,306.9171,1239.7691,304.1941,1234.8108,305.52,1244.57" style="stroke:#181818;stroke-width:1.0;"/><text fill="#000000" font-family="sans-serif" font-size="13" lengthAdjust="spacing" textLength="177" x="326" y="1185.5684">4. Create a Cluster Resource</text></g><!--link cluster to wkld--><g id="link_cluster_wkld"><path d="M299,1291.43 C299,1321.035 299,1374.93 299,1422.0325 C299,1427.9203 299,1433.702 299,1439.3168 C299,1440.7205 299,1442.1138 299,1443.4957 C299,1444.1867 299,1444.8748 299,1445.5599 C299,1445.9025 299,1440.2443 299,1440.5854 " fill="none" id="cluster-to-wkld" style="stroke:#181818;stroke-width:1.0;"/><polygon fill="#181818" points="299,1446.5854,303,1437.5854,299,1441.5854,295,1437.5854,299,1446.5854" style="stroke:#181818;stroke-width:1.0;"/><text fill="#000000" font-family="sans-serif" font-size="13" lengthAdjust="spacing" textLength="179" x="300" y="1376.5684">5. Create a Workload Cluster</text></g><!--link k8s_w_m to k8s_w_w--><!--link vld to mgmtdi--><g id="link_vld_mgmtdi"><path d="M193.67,703.5 C256.06,703.5 344.41,703.5 413.84,703.5 " fill="none" id="vld-to-mgmtdi" style="stroke:#181818;stroke-width:1.0;"/><polygon fill="#181818" points="419.84,703.5,410.84,699.5,414.84,703.5,410.84,707.5,419.84,703.5" style="stroke:#181818;stroke-width:1.0;"/><text fill="#000000" font-family="sans-serif" font-size="13" lengthAdjust="spacing" textLength="190" x="211.75" y="697.0684">6. Execute management driver</text></g><!--reverse link mgmtdi to mgmt--><g id="link_mgmtdi_mgmt"><path d="M506.2011,741.178 C501.4211,787.273 492.695,871.4425 484.4913,950.58 C482.4403,970.3644 480.4607,989.4613 478.6416,1007.0106 C478.1868,1011.3979 477.7421,1015.6885 477.3087,1019.869 C477.2546,1020.3915 477.2006,1020.9124 477.1468,1021.4315 " fill="none" id="mgmtdi-backto-mgmt" style="stroke:#181818;stroke-width:1.0;"/><polygon fill="#181818" points="506.82,735.21,501.913,743.7494,506.3043,740.1833,509.8704,744.5746,506.82,735.21" style="stroke:#181818;stroke-width:1.0;"/><text fill="#000000" font-family="sans-serif" font-size="13" lengthAdjust="spacing" textLength="244" x="501" y="832.5684">7. Get credentials for Workload Cluster</text></g><!--link mgmtdi to w--><g id="link_mgmtdi_w"><path d="M600.39,703.5 C650.62,703.5 705.66,703.5 749.6,703.5 " fill="none" id="mgmtdi-to-w" style="stroke:#181818;stroke-width:1.0;"/><polygon fill="#181818" points="755.6,703.5,746.6,699.5,750.6,703.5,746.6,707.5,755.6,703.5" style="stroke:#181818;stroke-width:1.0;"/><text fill="#000000" font-family="sans-serif" font-size="13" lengthAdjust="spacing" textLength="119" x="618.5" y="697.0684">8. Send credentials</text></g><!--SRC=[bLJRYjim47tNLmpfGxSF3lI-cB9GabwMqXAwiFlGbA2rvKH4bbn9NhUK_7j7bqHArdce8SQIpepEd3cJIhMTaanQcDonUxXX-e7f2L030o6DfYs3IVV7RfGiBAssJ5U28te2VmdWKwNmS5pipp53-8n8ztG8eMlCUFlj8op2mYCVPDDjrndIFGqN0JhVO-gHyncckjXU6fY9tbYcdotbd3LSSikL33J60sygpJjhe55wAU4hbKYcTNpdcgC6Itanqwp63Kw5GM5aZSbzmdRTsfHnHuxpNajZgOkoR2axwYH4MiP7SZnR-JqIGdU4kBgW-B7XDLxsyohGhKusmvNxXWIfp_V0n2ucFJDCrcA78wc6aMOgMVULLUTopTAv4nfNOwXRsOYgXThh6defHe5V-dkc9Sfbbf9BBBR8Oln6aYrAaVKj6k3GeaXPgffvfbOh0Gj1PV0SUcRLhjgii8WCQU3zuZfKHJkUYHH0TqflurKXpt0kJvm4_vtOPqN_j_CuXWlLrp3vJ7KzKCtWEpEgrnKBBjiC1pfH9KTNA5eVQJHiHVsOzQXEmwezmPq8C1m9i4k5Fds2v0HrmsWsl3CaZdfHN7dxbV1yYeXVFJCMnx3I3ES6SEX9cfKC_287ypHfFi91FDORqRtyofaDV_uxcCY_eT1ylR6u6PrGmiifpAWGaFlG-O0u3uJCGRyINY4qSALxKGzT817b8vpA9RpEuAVD857XDE-H4ueQYE-9XlQNy6OA7twpgiTqRN9Fc1KIGF2kA0eVKCBRANnYrcbxC1N-wJtc4ICTwH8kfzvvUHJv1m00]--></g></svg>