<?xml version="1.0" encoding="us-ascii" standalone="no"?><svg xmlns="http://www.w3.org/2000/svg" xmlns:xlink="http://www.w3.org/1999/xlink" contentStyleType="text/css" height="1057px" preserveAspectRatio="none" style="width:633px;height:1057px;background:#FFFFFF;" version="1.1" viewBox="0 0 633 1057" width="633px" zoomAndPan="magnify"><defs/><g><!--cluster python-tackerclient--><g id="cluster_python-tackerclient"><rect fill="none" height="270" rx="2.5" ry="2.5" style="stroke:#181818;stroke-width:1.0;" width="518" x="30" y="7"/><path d="M183,7 L183,16.4883 L173,26.4883 L30,26.4883 " fill="none" style="stroke:#181818;stroke-width:1.0;"/><text fill="#000000" font-family="sans-serif" font-size="14" font-weight="bold" lengthAdjust="spacing" textLength="143" x="33" y="21.5352">python-tackerclient</text></g><!--cluster client--><g id="cluster_client"><rect fill="none" height="203" rx="2.5" ry="2.5" style="stroke:#181818;stroke-width:1.0;" width="470" x="54" y="50"/><rect fill="none" height="10" style="stroke:#181818;stroke-width:1.0;" width="15" x="504" y="55"/><rect fill="none" height="2" style="stroke:#181818;stroke-width:1.0;" width="4" x="502" y="57"/><rect fill="none" height="2" style="stroke:#181818;stroke-width:1.0;" width="4" x="502" y="61"/><text fill="#000000" font-family="sans-serif" font-size="14" font-weight="bold" lengthAdjust="spacing" textLength="93" x="242.5" y="76.5352">tacker-client</text></g><!--cluster vnfpkg--><g id="cluster_vnfpkg"><path d="M197.5,101 L290.5,101 A3.75,3.75 0 0 1 293,103.5 L300,123.4883 L489.5,123.4883 A2.5,2.5 0 0 1 492,125.9883 L492,218.5 A2.5,2.5 0 0 1 489.5,221 L197.5,221 A2.5,2.5 0 0 1 195,218.5 L195,103.5 A2.5,2.5 0 0 1 197.5,101 " fill="none" style="stroke:#000000;stroke-width:1.5;"/><line style="stroke:#000000;stroke-width:1.5;" x1="195" x2="300" y1="123.4883" y2="123.4883"/><text fill="#000000" font-family="sans-serif" font-size="14" font-weight="bold" lengthAdjust="spacing" textLength="92" x="199" y="116.5352">VNF Package</text></g><!--cluster tacker--><g id="cluster_tacker"><rect fill="none" height="601.5" rx="2.5" ry="2.5" style="stroke:#181818;stroke-width:1.0;" width="212" x="7" y="341"/><path d="M61,341 L61,350.4883 L51,360.4883 L7,360.4883 " fill="none" style="stroke:#181818;stroke-width:1.0;"/><text fill="#000000" font-family="sans-serif" font-size="14" font-weight="bold" lengthAdjust="spacing" textLength="44" x="10" y="355.5352">tacker</text></g><!--cluster tacker-server--><g id="cluster_tacker-server"><rect fill="none" height="97" rx="2.5" ry="2.5" style="stroke:#181818;stroke-width:1.0;" width="116" x="55" y="384"/><rect fill="none" height="10" style="stroke:#181818;stroke-width:1.0;" width="15" x="151" y="389"/><rect fill="none" height="2" style="stroke:#181818;stroke-width:1.0;" width="4" x="149" y="391"/><rect fill="none" height="2" style="stroke:#181818;stroke-width:1.0;" width="4" x="149" y="395"/><text fill="#000000" font-family="sans-serif" font-size="14" font-weight="bold" lengthAdjust="spacing" textLength="97" x="64.5" y="410.5352">tacker-server</text></g><!--cluster tacker-conductor--><g id="cluster_tacker-conductor"><rect fill="none" height="404.5" rx="2.5" ry="2.5" style="stroke:#181818;stroke-width:1.0;" width="164" x="31" y="514"/><rect fill="none" height="10" style="stroke:#181818;stroke-width:1.0;" width="15" x="175" y="519"/><rect fill="none" height="2" style="stroke:#181818;stroke-width:1.0;" width="4" x="173" y="521"/><rect fill="none" height="2" style="stroke:#181818;stroke-width:1.0;" width="4" x="173" y="525"/><text fill="#000000" font-family="sans-serif" font-size="14" font-weight="bold" lengthAdjust="spacing" textLength="124" x="51" y="540.5352">tacker-conductor</text></g><!--cluster k8s--><g id="cluster_k8s"><rect fill="none" height="302.5" rx="2.5" ry="2.5" style="stroke:#181818;stroke-width:1.0;" width="343" x="284" y="749"/><path d="M432,749 L432,758.4883 L422,768.4883 L284,768.4883 " fill="none" style="stroke:#181818;stroke-width:1.0;"/><text fill="#000000" font-family="sans-serif" font-size="14" font-weight="bold" lengthAdjust="spacing" textLength="138" x="287" y="763.5352">Kubernetes Cluster</text></g><!--cluster k8s_m--><g id="cluster_k8s_m"><polygon fill="none" points="316,810,326,800,595,800,595,908,585,918,316,918,316,810" style="stroke:#181818;stroke-width:1.0;"/><line style="stroke:#181818;stroke-width:1.0;" x1="585" x2="595" y1="810" y2="800"/><line style="stroke:#181818;stroke-width:1.0;" x1="316" x2="585" y1="810" y2="810"/><line style="stroke:#181818;stroke-width:1.0;" x1="585" x2="585" y1="810" y2="918"/><text fill="#000000" font-family="sans-serif" font-size="14" font-weight="bold" lengthAdjust="spacing" textLength="98" x="402.5" y="826.5352">Control Plane</text></g><!--entity inst_param--><g id="elem_inst_param"><path d="M70,146.5 L70,194.4766 A2.5,2.5 0 0 0 72.5,196.9766 L165.5,196.9766 A2.5,2.5 0 0 0 168,194.4766 L168,154 L158,144 L72.5,144 A2.5,2.5 0 0 0 70,146.5 " fill="#F1F1F1" style="stroke:#181818;stroke-width:0.5;"/><path d="M158,144 L158,151.5 A2.5,2.5 0 0 0 160.5,154 L168,154 " fill="#F1F1F1" style="stroke:#181818;stroke-width:0.5;"/><text fill="#000000" font-family="sans-serif" font-size="14" lengthAdjust="spacing" textLength="72" x="80" y="167.5352">Instantiate</text><text fill="#000000" font-family="sans-serif" font-size="14" lengthAdjust="spacing" textLength="78" x="80" y="184.0234">parameters</text></g><!--entity vnfd--><g id="elem_vnfd"><path d="M410.5,155 L410.5,186.4883 A2.5,2.5 0 0 0 413,188.9883 L465,188.9883 A2.5,2.5 0 0 0 467.5,186.4883 L467.5,162.5 L457.5,152.5 L413,152.5 A2.5,2.5 0 0 0 410.5,155 " fill="#F1F1F1" style="stroke:#181818;stroke-width:0.5;"/><path d="M457.5,152.5 L457.5,160 A2.5,2.5 0 0 0 460,162.5 L467.5,162.5 " fill="#F1F1F1" style="stroke:#181818;stroke-width:0.5;"/><text fill="#000000" font-family="sans-serif" font-size="14" lengthAdjust="spacing" textLength="37" x="420.5" y="176.0352">VNFD</text></g><!--entity cnfd--><g id="elem_cnfd"><path d="M238.5,146.5 L238.5,194.4766 A2.5,2.5 0 0 0 241,196.9766 L373,196.9766 A2.5,2.5 0 0 0 375.5,194.4766 L375.5,154 L365.5,144 L241,144 A2.5,2.5 0 0 0 238.5,146.5 " fill="#F1F1F1" style="stroke:#181818;stroke-width:0.5;"/><path d="M365.5,144 L365.5,151.5 A2.5,2.5 0 0 0 368,154 L375.5,154 " fill="#F1F1F1" style="stroke:#181818;stroke-width:0.5;"/><text fill="#000000" font-family="sans-serif" font-size="14" lengthAdjust="spacing" textLength="117" x="248.5" y="167.5352">CNF (Cluster API)</text><text fill="#000000" font-family="sans-serif" font-size="14" lengthAdjust="spacing" textLength="67" x="248.5" y="184.0234">Definition</text></g><!--entity serv--><g id="elem_serv"><rect fill="#F1F1F1" height="46.4883" rx="2.5" ry="2.5" style="stroke:#181818;stroke-width:0.5;" width="83" x="71.5" y="419"/><rect fill="#F1F1F1" height="10" style="stroke:#181818;stroke-width:0.5;" width="15" x="134.5" y="424"/><rect fill="#F1F1F1" height="2" style="stroke:#181818;stroke-width:0.5;" width="4" x="132.5" y="426"/><rect fill="#F1F1F1" height="2" style="stroke:#181818;stroke-width:0.5;" width="4" x="132.5" y="430"/><text fill="#000000" font-family="sans-serif" font-size="14" lengthAdjust="spacing" textLength="43" x="86.5" y="452.5352">Server</text></g><!--entity cond--><g id="elem_cond"><rect fill="#F1F1F1" height="46.4883" rx="2.5" ry="2.5" style="stroke:#181818;stroke-width:0.5;" width="113" x="56.5" y="549"/><rect fill="#F1F1F1" height="10" style="stroke:#181818;stroke-width:0.5;" width="15" x="149.5" y="554"/><rect fill="#F1F1F1" height="2" style="stroke:#181818;stroke-width:0.5;" width="4" x="147.5" y="556"/><rect fill="#F1F1F1" height="2" style="stroke:#181818;stroke-width:0.5;" width="4" x="147.5" y="560"/><text fill="#000000" font-family="sans-serif" font-size="14" lengthAdjust="spacing" textLength="73" x="71.5" y="582.5352">Conductor</text></g><!--entity vld--><g id="elem_vld"><rect fill="#F1F1F1" height="46.4883" rx="2.5" ry="2.5" style="stroke:#181818;stroke-width:0.5;" width="131" x="47.5" y="656"/><rect fill="#F1F1F1" height="10" style="stroke:#181818;stroke-width:0.5;" width="15" x="158.5" y="661"/><rect fill="#F1F1F1" height="2" style="stroke:#181818;stroke-width:0.5;" width="4" x="156.5" y="663"/><rect fill="#F1F1F1" height="2" style="stroke:#181818;stroke-width:0.5;" width="4" x="156.5" y="667"/><text fill="#000000" font-family="sans-serif" font-size="14" lengthAdjust="spacing" textLength="91" x="62.5" y="689.5352">Vnflcm driver</text></g><!--entity infra--><g id="elem_infra"><rect fill="#F1F1F1" height="62.9766" rx="2.5" ry="2.5" style="stroke:#181818;stroke-width:0.5;" width="120" x="53" y="839.5"/><rect fill="#F1F1F1" height="10" style="stroke:#181818;stroke-width:0.5;" width="15" x="153" y="844.5"/><rect fill="#F1F1F1" height="2" style="stroke:#181818;stroke-width:0.5;" width="4" x="151" y="846.5"/><rect fill="#F1F1F1" height="2" style="stroke:#181818;stroke-width:0.5;" width="4" x="151" y="850.5"/><text fill="#000000" font-family="sans-serif" font-size="14" lengthAdjust="spacing" textLength="78" x="68" y="873.0352">Kubernetes</text><text fill="#000000" font-family="sans-serif" font-size="14" lengthAdjust="spacing" textLength="80" x="68" y="889.5234">infra-driver</text></g><!--entity k8s_w--><g id="elem_k8s_w"><polygon fill="#F1F1F1" points="468.5,999.5,478.5,989.5,557.5,989.5,557.5,1025.9883,547.5,1035.9883,468.5,1035.9883,468.5,999.5" style="stroke:#181818;stroke-width:0.5;"/><line style="stroke:#181818;stroke-width:0.5;" x1="547.5" x2="557.5" y1="999.5" y2="989.5"/><line style="stroke:#181818;stroke-width:0.5;" x1="468.5" x2="547.5" y1="999.5" y2="999.5"/><line style="stroke:#181818;stroke-width:0.5;" x1="547.5" x2="547.5" y1="999.5" y2="1035.9883"/><text fill="#000000" font-family="sans-serif" font-size="14" lengthAdjust="spacing" textLength="49" x="483.5" y="1023.0352">Worker</text></g><!--entity capi--><g id="elem_capi"><polygon fill="#F1F1F1" points="455.5,858,465.5,848,570.5,848,570.5,884.4883,560.5,894.4883,455.5,894.4883,455.5,858" style="stroke:#181818;stroke-width:0.5;"/><line style="stroke:#181818;stroke-width:0.5;" x1="560.5" x2="570.5" y1="858" y2="848"/><line style="stroke:#181818;stroke-width:0.5;" x1="455.5" x2="560.5" y1="858" y2="858"/><line style="stroke:#181818;stroke-width:0.5;" x1="560.5" x2="560.5" y1="858" y2="894.4883"/><text fill="#000000" font-family="sans-serif" font-size="14" lengthAdjust="spacing" textLength="75" x="470.5" y="881.5352">Cluster API</text></g><!--link vnfpkg to serv--><g id="link_vnfpkg_serv"><path d="M207.3525,221.6424 C207.3653,222.1028 207.3773,222.5651 207.3886,223.0293 C207.4111,223.9578 207.4309,224.894 207.4475,225.8375 C207.98,256.03 205.365,293.705 193,325 C178.8,360.95 155.5246,392.1288 136.8246,414.2388 " fill="none" id="vnfpkg-to-serv" style="stroke:#181818;stroke-width:1.0;"/><polygon fill="#181818" points="132.95,418.82,141.8161,414.5313,136.1789,415.0023,135.7078,409.3651,132.95,418.82" style="stroke:#181818;stroke-width:1.0;"/><text fill="#000000" font-family="sans-serif" font-size="13" lengthAdjust="spacing" textLength="66" x="204.5" y="306.5684">1. Request</text><text fill="#000000" font-family="sans-serif" font-size="13" lengthAdjust="spacing" textLength="67" x="206" y="321.8789">create VNF</text></g><!--link inst_param to serv--><g id="link_inst_param_serv"><path d="M108.47,197.33 C97.32,227.64 81.97,279.54 87,325 C90.66,358.03 98.3968,389.6081 104.8268,412.7981 " fill="none" id="inst_param-to-serv" style="stroke:#181818;stroke-width:1.0;"/><polygon fill="#181818" points="106.43,418.58,107.8798,408.8384,105.094,413.7618,100.1707,410.976,106.43,418.58" style="stroke:#181818;stroke-width:1.0;"/><text fill="#000000" font-family="sans-serif" font-size="13" lengthAdjust="spacing" textLength="66" x="105" y="306.5684">2. Request</text><text fill="#000000" font-family="sans-serif" font-size="13" lengthAdjust="spacing" textLength="96" x="92" y="321.8789">instantiate VNF</text></g><!--link serv to cond--><g id="link_serv_cond"><path d="M113,465.3 C113,488.65 113,519.11 113,542.53 " fill="none" id="serv-to-cond" style="stroke:#181818;stroke-width:1.0;"/><polygon fill="#181818" points="113,548.53,117,539.53,113,543.53,109,539.53,113,548.53" style="stroke:#181818;stroke-width:1.0;"/></g><!--link cond to vld--><g id="link_cond_vld"><path d="M113,595.27 C113,613.09 113,631.95 113,649.76 " fill="none" id="cond-to-vld" style="stroke:#181818;stroke-width:1.0;"/><polygon fill="#181818" points="113,655.76,117,646.76,113,650.76,109,646.76,113,655.76" style="stroke:#181818;stroke-width:1.0;"/></g><!--link vld to infra--><g id="link_vld_infra"><path d="M113,702.17 C113,736.04 113,794.78 113,833.19 " fill="none" id="vld-to-infra" style="stroke:#181818;stroke-width:1.0;"/><polygon fill="#181818" points="113,839.19,117,830.19,113,834.19,109,830.19,113,839.19" style="stroke:#181818;stroke-width:1.0;"/></g><!--link infra to k8s_m--><g id="link_infra_k8s_m"><path d="M173.46,871 C203.175,871 238.7575,871 267.8663,871 C282.4206,871 295.3566,871 305.1314,871 C307.5751,871 309.8213,871 311.8457,871 C312.858,871 313.8148,871 314.7132,871 C314.9378,871 315.1587,871 315.376,871 C315.4846,871 309.5923,871 309.699,871 " fill="none" id="infra-to-k8s_m" style="stroke:#181818;stroke-width:1.0;"/><polygon fill="#181818" points="315.699,871,306.699,867,310.699,871,306.699,875,315.699,871" style="stroke:#181818;stroke-width:1.0;"/><text fill="#000000" font-family="sans-serif" font-size="13" lengthAdjust="spacing" textLength="114" x="191.32" y="849.5684">3. Call Kubernetes</text><text fill="#000000" font-family="sans-serif" font-size="13" lengthAdjust="spacing" textLength="20" x="240.32" y="864.8789">API</text></g><!--link k8s_m to capi--><g id="link_k8s_m_capi"><path d="M324.84,871 C333.26,871 396.96,871 449.09,871 " fill="none" id="k8s_m-to-capi" style="stroke:#181818;stroke-width:1.0;"/><polygon fill="#181818" points="455.09,871,446.09,867,450.09,871,446.09,875,455.09,871" style="stroke:#181818;stroke-width:1.0;"/><text fill="#000000" font-family="sans-serif" font-size="13" lengthAdjust="spacing" textLength="95" x="342.43" y="849.5684">4. Create a CRs</text><text fill="#000000" font-family="sans-serif" font-size="13" lengthAdjust="spacing" textLength="91" x="346.43" y="864.8789">for Cluster API</text></g><!--link capi to k8s_w--><!--SRC=[TP9DImCn48Rl-HL3FQY7BVXna1u4sI8KGKg5Uh1Iucws3KqdQv9j4Ub_Tv9isQZRm2v9vfclTr8PlXKmgB_SMcFcUB4Hfb1Ie1l0DmDQXTxM6ka21j6S7UtSGjosf5yr8Nn54UVFZp2DXq3kiAetguJqgv8gekCZK_ROSmfraQl6Ec7WOJgvNE1OL1AbanfZ6QdZWVrsdw1r79taJYomvhvX2cI3eoJRCjonw7fWh8gIn6PFgs25sNNsFynBQwGKdcDTNJroQYoRmkbJiVBExbkbKnyrnqeLMoYDF2RUgLxmgVaG1aa2kq29r6oM-8IBVr9qBj2E8S2REzjMZBeKeL1dj8AfuYYEn7ARTDLotIXZIxoMYK8HUjLcq-LPxdqvvsSm4uhxiTkrh2rh7rMMtGUPHt0r9EAp4TOj40eZQEP0pujrSqxWwnIMtIi97Xu9R13S_yB9YqfVs4UnmXyo8rThHvUXvH7S327dIa6gjc-OHKbyNEfw1BV4nJ8vv3CFLTf0eX1Z7eJiRItBKk1xcsBFVW00]--></g></svg>