<?xml version="1.0" encoding="us-ascii" standalone="no"?><svg xmlns="http://www.w3.org/2000/svg" xmlns:xlink="http://www.w3.org/1999/xlink" contentStyleType="text/css" height="1338px" preserveAspectRatio="none" style="width:683px;height:1338px;background:#FFFFFF;" version="1.1" viewBox="0 0 683 1338" width="683px" zoomAndPan="magnify"><defs/><g><!--cluster python-tackerclient--><g id="cluster_python-tackerclient"><rect fill="none" height="97" rx="2.5" ry="2.5" style="stroke:#181818;stroke-width:1.0;" width="160" x="33" y="7"/><path d="M186,7 L186,16.4883 L176,26.4883 L33,26.4883 " fill="none" style="stroke:#181818;stroke-width:1.0;"/><text fill="#000000" font-family="sans-serif" font-size="14" font-weight="bold" lengthAdjust="spacing" textLength="143" x="36" y="21.5352">python-tackerclient</text></g><!--cluster tacker--><g id="cluster_tacker"><rect fill="none" height="601.5" rx="2.5" ry="2.5" style="stroke:#181818;stroke-width:1.0;" width="212" x="7" y="168"/><path d="M61,168 L61,177.4883 L51,187.4883 L7,187.4883 " fill="none" style="stroke:#181818;stroke-width:1.0;"/><text fill="#000000" font-family="sans-serif" font-size="14" font-weight="bold" lengthAdjust="spacing" textLength="44" x="10" y="182.5352">tacker</text></g><!--cluster tacker-server--><g id="cluster_tacker-server"><rect fill="none" height="97" rx="2.5" ry="2.5" style="stroke:#181818;stroke-width:1.0;" width="116" x="55" y="211"/><rect fill="none" height="10" style="stroke:#181818;stroke-width:1.0;" width="15" x="151" y="216"/><rect fill="none" height="2" style="stroke:#181818;stroke-width:1.0;" width="4" x="149" y="218"/><rect fill="none" height="2" style="stroke:#181818;stroke-width:1.0;" width="4" x="149" y="222"/><text fill="#000000" font-family="sans-serif" font-size="14" font-weight="bold" lengthAdjust="spacing" textLength="97" x="64.5" y="237.5352">tacker-server</text></g><!--cluster tacker-conductor--><g id="cluster_tacker-conductor"><rect fill="none" height="404.5" rx="2.5" ry="2.5" style="stroke:#181818;stroke-width:1.0;" width="164" x="31" y="341"/><rect fill="none" height="10" style="stroke:#181818;stroke-width:1.0;" width="15" x="175" y="346"/><rect fill="none" height="2" style="stroke:#181818;stroke-width:1.0;" width="4" x="173" y="348"/><rect fill="none" height="2" style="stroke:#181818;stroke-width:1.0;" width="4" x="173" y="352"/><text fill="#000000" font-family="sans-serif" font-size="14" font-weight="bold" lengthAdjust="spacing" textLength="124" x="51" y="367.5352">tacker-conductor</text></g><!--cluster mgmt--><g id="cluster_mgmt"><rect fill="none" height="383.5" rx="2.5" ry="2.5" style="stroke:#181818;stroke-width:1.0;" width="273" x="284" y="576"/><path d="M443,576 L443,585.4883 L433,595.4883 L284,595.4883 " fill="none" style="stroke:#181818;stroke-width:1.0;"/><text fill="#000000" font-family="sans-serif" font-size="14" font-weight="bold" lengthAdjust="spacing" textLength="149" x="287" y="590.5352">Management Cluster</text></g><!--cluster k8s_m_m--><g id="cluster_k8s_m_m"><polygon fill="none" points="316,637,326,627,499,627,499,735,489,745,316,745,316,637" style="stroke:#181818;stroke-width:1.0;"/><line style="stroke:#181818;stroke-width:1.0;" x1="489" x2="499" y1="637" y2="627"/><line style="stroke:#181818;stroke-width:1.0;" x1="316" x2="489" y1="637" y2="637"/><line style="stroke:#181818;stroke-width:1.0;" x1="489" x2="489" y1="637" y2="745"/><text fill="#000000" font-family="sans-serif" font-size="14" font-weight="bold" lengthAdjust="spacing" textLength="98" x="354.5" y="653.5352">Control Plane</text></g><!--cluster k8s_m_w--><g id="cluster_k8s_m_w"><polygon fill="none" points="308,843.5,318,833.5,435,833.5,435,925.5,425,935.5,308,935.5,308,843.5" style="stroke:#181818;stroke-width:1.0;"/><line style="stroke:#181818;stroke-width:1.0;" x1="425" x2="435" y1="843.5" y2="833.5"/><line style="stroke:#181818;stroke-width:1.0;" x1="308" x2="425" y1="843.5" y2="843.5"/><line style="stroke:#181818;stroke-width:1.0;" x1="425" x2="425" y1="843.5" y2="935.5"/><text fill="#000000" font-family="sans-serif" font-size="14" font-weight="bold" lengthAdjust="spacing" textLength="51" x="342" y="860.0352">Worker</text></g><!--cluster hw_w--><g id="cluster_hw_w"><path d="M345.3239,1017.1718 C349.9309,1004.9539 360.5979,1004.3387 367.2178,1015.2678 C374.4963,1005.6177 383.6917,1006.9476 389.5654,1016.8716 C394.5003,1006.9326 403.2106,1004.6248 411.174,1013.369 C415.8969,1002.4072 424.5851,1002.1105 431.4568,1011.1948 C437.8154,999.3189 447.6722,1001.9077 453.7624,1011.4741 C458.886,998.8595 466.2749,999.8632 474.9323,1007.8413 C481.6455,997.3494 491.1434,999.4313 496.8886,1008.9057 C504.2551,999.0801 513.1785,999.4516 519.0477,1010.4955 C525.731,1000.4702 535.545,1002.4642 540.4173,1012.4314 C548.0438,1003.8237 554.5373,1002.6595 561.4585,1013.2061 C568.4451,1001.4525 577.1165,1000.5874 585.3601,1011.9037 C592.8769,1002.5342 598.6254,1004.434 604.7324,1013.3936 C612.605,1001.0783 623.0242,1003.1569 628.5208,1015.67 C639.0738,1007.0242 651.2433,1009.1625 655,1023.5 C656.8053,1024.1172 657.2088,1025.6265 655.889,1027.0306 C667.0301,1031.0263 668.6353,1039.8187 660.1345,1047.8247 C670.4042,1052.6634 670.4137,1063.4938 661.3789,1069.4437 C673.3619,1075.9767 672.9388,1085.1761 661.7648,1092.1036 C675.9565,1099.3878 675.3586,1110.3325 662.0209,1117.8901 C672.4366,1123.2065 675.3053,1132.9537 663.7548,1139.9932 C676.7482,1148.4917 673.6494,1155.7473 663.4495,1163.9503 C674.5977,1169.679 676.1676,1178.7693 665.7165,1186.6547 C674.3987,1196.1241 672.4396,1202.0502 660.9755,1206.7717 C671.0207,1214.9585 673.5081,1223.0709 661.3287,1231.5742 C669.3626,1238.1947 669.1158,1248.3292 658.7209,1252.6719 C668.1548,1259.5568 668.4558,1266.0266 659.9276,1273.931 C669.0778,1286.2989 663.9118,1301.2417 648,1303.5 C649.5957,1302.14 651.2,1302.1531 651.8799,1304.4671 C647.218,1316.8927 636.9432,1318.9872 629.0609,1307.546 C623.1233,1318.6798 613.2781,1318.5447 607.0103,1307.8799 C601.977,1319.7198 594.6586,1321.6434 585.3043,1312.3095 C578.5914,1323.0127 569.0235,1321.6439 563.1246,1311.4458 C558.0007,1323.5225 551.3017,1322.4332 542.4177,1315.5531 C537.8711,1328.473 526.7159,1327.0837 519.9208,1317.8349 C514.4002,1328.2798 506.0806,1327.8575 499.7711,1318.6435 C490.9919,1331.3682 482.1661,1331.2176 474.41,1317.6564 C466.6695,1326.9263 457.155,1324.9465 454.2933,1313.025 C448.5432,1323.3187 439.7744,1321.1243 434.5502,1312.4768 C427.4256,1322.3345 416.9483,1322.5109 411.8792,1310.3595 C405.8995,1321.1014 395.2074,1320.4323 388.6583,1311.0153 C380.2943,1321.7821 370.8509,1319.8467 366.6157,1307.1384 C353.0412,1320.4239 339.1775,1314.9421 337,1296.5 C338.2903,1297.1058 338.6949,1298.1385 337.523,1299.2181 C326.7682,1290.365 329.9131,1283.8471 339.7326,1277.0441 C328.2356,1268.5425 326.6223,1260.5336 339.3581,1251.6743 C327.2991,1246.8791 327.0102,1238.1733 336.6809,1230.6156 C326.1904,1223.6131 325.8142,1216.8365 336.4604,1209.6121 C323.819,1203.0935 323.1432,1194.5358 335.1228,1186.5869 C323.9453,1180.4725 320.723,1168.2319 334.1652,1161.1893 C324.0816,1153.3533 325.6382,1147.0754 335.6422,1140.6865 C325.5824,1133.8747 325.6156,1122.0661 336.6328,1116.1037 C325.5351,1110.0132 324.5433,1099.1558 335.6906,1092.1889 C327.5991,1083.492 328.1748,1076.4402 339.0942,1070.7632 C329.5714,1065.2475 326.6518,1055.1567 337.5375,1048.2311 C324.9762,1036.4856 327.3043,1022.2869 344,1016.5 C344.7413,1016.1455 345.1641,1016.3803 345.3239,1017.1718 " fill="none" style="stroke:#181818;stroke-width:1.0;"/><text fill="#000000" font-family="sans-serif" font-size="14" font-weight="bold" lengthAdjust="spacing" textLength="146" x="423" y="1035.0352">Hardware Resources</text></g><!--cluster wkld--><g id="cluster_wkld"><rect fill="none" height="220" rx="2.5" ry="2.5" style="stroke:#181818;stroke-width:1.0;" width="270" x="361" y="1059.5"/><path d="M496,1059.5 L496,1068.9883 L486,1078.9883 L361,1078.9883 " fill="none" style="stroke:#181818;stroke-width:1.0;"/><text fill="#000000" font-family="sans-serif" font-size="14" font-weight="bold" lengthAdjust="spacing" textLength="125" x="364" y="1074.0352">Workload Cluster</text></g><!--entity client--><g id="elem_client"><rect fill="#F1F1F1" height="46.4883" rx="2.5" ry="2.5" style="stroke:#181818;stroke-width:0.5;" width="127" x="49.5" y="42"/><rect fill="#F1F1F1" height="10" style="stroke:#181818;stroke-width:0.5;" width="15" x="156.5" y="47"/><rect fill="#F1F1F1" height="2" style="stroke:#181818;stroke-width:0.5;" width="4" x="154.5" y="49"/><rect fill="#F1F1F1" height="2" style="stroke:#181818;stroke-width:0.5;" width="4" x="154.5" y="53"/><text fill="#000000" font-family="sans-serif" font-size="14" lengthAdjust="spacing" textLength="87" x="64.5" y="75.5352">tacker-client</text></g><!--entity serv--><g id="elem_serv"><rect fill="#F1F1F1" height="46.4883" rx="2.5" ry="2.5" style="stroke:#181818;stroke-width:0.5;" width="83" x="71.5" y="246"/><rect fill="#F1F1F1" height="10" style="stroke:#181818;stroke-width:0.5;" width="15" x="134.5" y="251"/><rect fill="#F1F1F1" height="2" style="stroke:#181818;stroke-width:0.5;" width="4" x="132.5" y="253"/><rect fill="#F1F1F1" height="2" style="stroke:#181818;stroke-width:0.5;" width="4" x="132.5" y="257"/><text fill="#000000" font-family="sans-serif" font-size="14" lengthAdjust="spacing" textLength="43" x="86.5" y="279.5352">Server</text></g><!--entity cond--><g id="elem_cond"><rect fill="#F1F1F1" height="46.4883" rx="2.5" ry="2.5" style="stroke:#181818;stroke-width:0.5;" width="113" x="56.5" y="376"/><rect fill="#F1F1F1" height="10" style="stroke:#181818;stroke-width:0.5;" width="15" x="149.5" y="381"/><rect fill="#F1F1F1" height="2" style="stroke:#181818;stroke-width:0.5;" width="4" x="147.5" y="383"/><rect fill="#F1F1F1" height="2" style="stroke:#181818;stroke-width:0.5;" width="4" x="147.5" y="387"/><text fill="#000000" font-family="sans-serif" font-size="14" lengthAdjust="spacing" textLength="73" x="71.5" y="409.5352">Conductor</text></g><!--entity vld--><g id="elem_vld"><rect fill="#F1F1F1" height="46.4883" rx="2.5" ry="2.5" style="stroke:#181818;stroke-width:0.5;" width="131" x="47.5" y="483"/><rect fill="#F1F1F1" height="10" style="stroke:#181818;stroke-width:0.5;" width="15" x="158.5" y="488"/><rect fill="#F1F1F1" height="2" style="stroke:#181818;stroke-width:0.5;" width="4" x="156.5" y="490"/><rect fill="#F1F1F1" height="2" style="stroke:#181818;stroke-width:0.5;" width="4" x="156.5" y="494"/><text fill="#000000" font-family="sans-serif" font-size="14" lengthAdjust="spacing" textLength="91" x="62.5" y="516.5352">Vnflcm driver</text></g><!--entity infra--><g id="elem_infra"><rect fill="#F1F1F1" height="62.9766" rx="2.5" ry="2.5" style="stroke:#181818;stroke-width:0.5;" width="120" x="53" y="666.5"/><rect fill="#F1F1F1" height="10" style="stroke:#181818;stroke-width:0.5;" width="15" x="153" y="671.5"/><rect fill="#F1F1F1" height="2" style="stroke:#181818;stroke-width:0.5;" width="4" x="151" y="673.5"/><rect fill="#F1F1F1" height="2" style="stroke:#181818;stroke-width:0.5;" width="4" x="151" y="677.5"/><text fill="#000000" font-family="sans-serif" font-size="14" lengthAdjust="spacing" textLength="78" x="68" y="700.0352">Kubernetes</text><text fill="#000000" font-family="sans-serif" font-size="14" lengthAdjust="spacing" textLength="80" x="68" y="716.5234">infra-driver</text></g><!--entity capi--><g id="elem_capi"><polygon fill="#F1F1F1" points="359.5,685,369.5,675,474.5,675,474.5,711.4883,464.5,721.4883,359.5,721.4883,359.5,685" style="stroke:#181818;stroke-width:0.5;"/><line style="stroke:#181818;stroke-width:0.5;" x1="464.5" x2="474.5" y1="685" y2="675"/><line style="stroke:#181818;stroke-width:0.5;" x1="359.5" x2="464.5" y1="685" y2="685"/><line style="stroke:#181818;stroke-width:0.5;" x1="464.5" x2="464.5" y1="685" y2="721.4883"/><text fill="#000000" font-family="sans-serif" font-size="14" lengthAdjust="spacing" textLength="75" x="374.5" y="708.5352">Cluster API</text></g><!--entity cluster--><g id="elem_cluster"><polygon fill="#F1F1F1" points="324.5,883.5,334.5,873.5,413.5,873.5,413.5,909.9883,403.5,919.9883,324.5,919.9883,324.5,883.5" style="stroke:#181818;stroke-width:0.5;"/><line style="stroke:#181818;stroke-width:0.5;" x1="403.5" x2="413.5" y1="883.5" y2="873.5"/><line style="stroke:#181818;stroke-width:0.5;" x1="324.5" x2="403.5" y1="883.5" y2="883.5"/><line style="stroke:#181818;stroke-width:0.5;" x1="403.5" x2="403.5" y1="883.5" y2="919.9883"/><text fill="#000000" font-family="sans-serif" font-size="14" lengthAdjust="spacing" textLength="49" x="339.5" y="907.0352">Cluster</text></g><!--entity k8s_w_m--><g id="elem_k8s_w_m"><polygon fill="#F1F1F1" points="438.5,1112.5,448.5,1102.5,571.5,1102.5,571.5,1138.9883,561.5,1148.9883,438.5,1148.9883,438.5,1112.5" style="stroke:#181818;stroke-width:0.5;"/><line style="stroke:#181818;stroke-width:0.5;" x1="561.5" x2="571.5" y1="1112.5" y2="1102.5"/><line style="stroke:#181818;stroke-width:0.5;" x1="438.5" x2="561.5" y1="1112.5" y2="1112.5"/><line style="stroke:#181818;stroke-width:0.5;" x1="561.5" x2="561.5" y1="1112.5" y2="1148.9883"/><text fill="#000000" font-family="sans-serif" font-size="14" lengthAdjust="spacing" textLength="93" x="453.5" y="1136.0352">Control Plane</text></g><!--entity k8s_w_w--><g id="elem_k8s_w_w"><polygon fill="#F1F1F1" points="393.5,1219.5,403.5,1209.5,482.5,1209.5,482.5,1245.9883,472.5,1255.9883,393.5,1255.9883,393.5,1219.5" style="stroke:#181818;stroke-width:0.5;"/><line style="stroke:#181818;stroke-width:0.5;" x1="472.5" x2="482.5" y1="1219.5" y2="1209.5"/><line style="stroke:#181818;stroke-width:0.5;" x1="393.5" x2="472.5" y1="1219.5" y2="1219.5"/><line style="stroke:#181818;stroke-width:0.5;" x1="472.5" x2="472.5" y1="1219.5" y2="1255.9883"/><text fill="#000000" font-family="sans-serif" font-size="14" lengthAdjust="spacing" textLength="49" x="408.5" y="1243.0352">Worker</text></g><!--entity k8s_w_w2--><g id="elem_k8s_w_w2"><polygon fill="#F1F1F1" points="517.5,1219.5,527.5,1209.5,606.5,1209.5,606.5,1245.9883,596.5,1255.9883,517.5,1255.9883,517.5,1219.5" style="stroke:#181818;stroke-width:0.5;"/><line style="stroke:#181818;stroke-width:0.5;" x1="596.5" x2="606.5" y1="1219.5" y2="1209.5"/><line style="stroke:#181818;stroke-width:0.5;" x1="517.5" x2="596.5" y1="1219.5" y2="1219.5"/><line style="stroke:#181818;stroke-width:0.5;" x1="596.5" x2="596.5" y1="1219.5" y2="1255.9883"/><text fill="#000000" font-family="sans-serif" font-size="14" lengthAdjust="spacing" textLength="49" x="532.5" y="1243.0352">Worker</text></g><!--link client to serv--><g id="link_client_serv"><path d="M113,88.39 C113,127.22 113,200.61 113,239.51 " fill="none" id="client-to-serv" style="stroke:#181818;stroke-width:1.0;"/><polygon fill="#181818" points="113,245.51,117,236.51,113,240.51,109,236.51,113,245.51" style="stroke:#181818;stroke-width:1.0;"/><text fill="#000000" font-family="sans-serif" font-size="13" lengthAdjust="spacing" textLength="66" x="114" y="133.5684">1. Request</text><text fill="#000000" font-family="sans-serif" font-size="13" lengthAdjust="spacing" textLength="61" x="118.5" y="148.8789">scale VNF</text></g><!--link serv to cond--><g id="link_serv_cond"><path d="M113,292.3 C113,315.65 113,346.11 113,369.53 " fill="none" id="serv-to-cond" style="stroke:#181818;stroke-width:1.0;"/><polygon fill="#181818" points="113,375.53,117,366.53,113,370.53,109,366.53,113,375.53" style="stroke:#181818;stroke-width:1.0;"/></g><!--link cond to vld--><g id="link_cond_vld"><path d="M113,422.27 C113,440.09 113,458.95 113,476.76 " fill="none" id="cond-to-vld" style="stroke:#181818;stroke-width:1.0;"/><polygon fill="#181818" points="113,482.76,117,473.76,113,477.76,109,473.76,113,482.76" style="stroke:#181818;stroke-width:1.0;"/></g><!--link vld to infra--><g id="link_vld_infra"><path d="M113,529.17 C113,563.04 113,621.78 113,660.19 " fill="none" id="vld-to-infra" style="stroke:#181818;stroke-width:1.0;"/><polygon fill="#181818" points="113,666.19,117,657.19,113,661.19,109,657.19,113,666.19" style="stroke:#181818;stroke-width:1.0;"/></g><!--link infra to k8s_m_m--><g id="link_infra_k8s_m_m"><path d="M173.46,698 C203.175,698 238.7575,698 267.8663,698 C282.4206,698 295.3566,698 305.1314,698 C307.5751,698 309.8213,698 311.8457,698 C312.858,698 313.8148,698 314.7132,698 C314.9378,698 315.1587,698 315.376,698 C315.4846,698 309.5923,698 309.699,698 " fill="none" id="infra-to-k8s_m_m" style="stroke:#181818;stroke-width:1.0;"/><polygon fill="#181818" points="315.699,698,306.699,694,310.699,698,306.699,702,315.699,698" style="stroke:#181818;stroke-width:1.0;"/><text fill="#000000" font-family="sans-serif" font-size="13" lengthAdjust="spacing" textLength="114" x="191.32" y="676.5684">2. Call Kubernetes</text><text fill="#000000" font-family="sans-serif" font-size="13" lengthAdjust="spacing" textLength="20" x="240.32" y="691.8789">API</text></g><!--link capi to cluster--><g id="link_capi_cluster"><path d="M411.59,721.16 C402.37,758.9 385.143,829.4012 375.893,867.2912 " fill="none" id="capi-to-cluster" style="stroke:#181818;stroke-width:1.0;"/><polygon fill="#181818" points="374.47,873.12,380.4903,865.3254,375.6558,868.2627,372.7186,863.4281,374.47,873.12" style="stroke:#181818;stroke-width:1.0;"/><text fill="#000000" font-family="sans-serif" font-size="13" lengthAdjust="spacing" textLength="141" x="426.5" y="799.0684">3. Change a parameter</text><text fill="#000000" font-family="sans-serif" font-size="13" lengthAdjust="spacing" textLength="200" x="399" y="814.3789">for the number of worker nodes</text></g><!--link cluster to wkld--><g id="link_cluster_wkld"><path d="M369,919.68 C369,947.795 369,997.8525 369,1041.4413 C369,1046.8898 369,1052.2374 369,1057.4283 C369,1058.0772 369,1052.7236 369,1053.3675 " fill="none" id="cluster-to-wkld" style="stroke:#181818;stroke-width:1.0;"/><polygon fill="#181818" points="369,1059.3675,373,1050.3675,369,1054.3675,365,1050.3675,369,1059.3675" style="stroke:#181818;stroke-width:1.0;"/><text fill="#000000" font-family="sans-serif" font-size="13" lengthAdjust="spacing" textLength="245" x="370" y="989.0684">4. Change the number of worker nodes</text></g><!--link k8s_w_m to k8s_w_w--><!--link k8s_w_m to k8s_w_w2--><!--SRC=[XL9DIyD04BtdLmpru2a5gmVfGP22AA8KXNgmKjRif0dTZxYxQH3fVtU_siIsgO4ikpjltynxCxaY765GVPj2YjIGR8KgOoKACu2V1EoNILv9OIzW4CBfDauqX6r4Rf9DakI1C43xEJIgTHlVmxp6e4tWS96yfnWfQ9qPsSSrQUEkNdiwXfg9d6KSg2gtYTViAF2n_aGbqA2UYr9OiMddZRyuiEA92B94xfvFMArD1FCbtned94LVgL6ImPGHWHwokjOBlk0TOH4PQE1s-X1KaQhic1H0RrAjOgh0q_Jnn4xwVLjzncHDON1F56s8GdX1BMkLeVRmejdnHPak7vE4_X7Ph1WzJ7jKQBFWUxWz1JRZlu1HM__vcIsP4LDAeOkoqacSrJIzyLCrXekXHNpLgCrSWCu8GvWztoKkw55-MDpYJsuWxE_teT5-XLILoyBOozYjCOo6C26CGNTMNAyIrwV072mQmwM55aGi4GXKn1bfhoqwbmfCWI1gRZb0vj1uhLwuan86m74vYyTmjICwyIpQ3EbxKLAAuYDMxPmz4Hiblm00]--></g></svg>