<?xml version="1.0" encoding="us-ascii" standalone="no"?><svg xmlns="http://www.w3.org/2000/svg" xmlns:xlink="http://www.w3.org/1999/xlink" contentStyleType="text/css" height="1056px" preserveAspectRatio="none" style="width:632px;height:1056px;background:#FFFFFF;" version="1.1" viewBox="0 0 632 1056" width="632px" zoomAndPan="magnify"><defs/><g><!--cluster python-tackerclient--><g id="cluster_python-tackerclient"><rect fill="none" height="286" rx="2.5" ry="2.5" style="stroke:#181818;stroke-width:1.0;" width="619" x="7" y="7"/><path d="M160,7 L160,16.4883 L150,26.4883 L7,26.4883 " fill="none" style="stroke:#181818;stroke-width:1.0;"/><text fill="#000000" font-family="sans-serif" font-size="14" font-weight="bold" lengthAdjust="spacing" textLength="143" x="10" y="21.5352">python-tackerclient</text></g><!--cluster client--><g id="cluster_client"><rect fill="none" height="219" rx="2.5" ry="2.5" style="stroke:#181818;stroke-width:1.0;" width="571" x="31" y="50"/><rect fill="none" height="10" style="stroke:#181818;stroke-width:1.0;" width="15" x="582" y="55"/><rect fill="none" height="2" style="stroke:#181818;stroke-width:1.0;" width="4" x="580" y="57"/><rect fill="none" height="2" style="stroke:#181818;stroke-width:1.0;" width="4" x="580" y="61"/><text fill="#000000" font-family="sans-serif" font-size="14" font-weight="bold" lengthAdjust="spacing" textLength="93" x="270" y="76.5352">tacker-client</text></g><!--cluster vnfpkg--><g id="cluster_vnfpkg"><path d="M174.5,101 L267.5,101 A3.75,3.75 0 0 1 270,103.5 L277,123.4883 L567.5,123.4883 A2.5,2.5 0 0 1 570,125.9883 L570,234.5 A2.5,2.5 0 0 1 567.5,237 L174.5,237 A2.5,2.5 0 0 1 172,234.5 L172,103.5 A2.5,2.5 0 0 1 174.5,101 " fill="none" style="stroke:#000000;stroke-width:1.5;"/><line style="stroke:#000000;stroke-width:1.5;" x1="172" x2="277" y1="123.4883" y2="123.4883"/><text fill="#000000" font-family="sans-serif" font-size="14" font-weight="bold" lengthAdjust="spacing" textLength="92" x="176" y="116.5352">VNF Package</text></g><!--cluster tacker--><g id="cluster_tacker"><rect fill="none" height="418" rx="2.5" ry="2.5" style="stroke:#181818;stroke-width:1.0;" width="200" x="26" y="357"/><path d="M80,357 L80,366.4883 L70,376.4883 L26,376.4883 " fill="none" style="stroke:#181818;stroke-width:1.0;"/><text fill="#000000" font-family="sans-serif" font-size="14" font-weight="bold" lengthAdjust="spacing" textLength="44" x="29" y="371.5352">tacker</text></g><!--cluster tacker-server--><g id="cluster_tacker-server"><rect fill="none" height="97" rx="2.5" ry="2.5" style="stroke:#181818;stroke-width:1.0;" width="114" x="69" y="400"/><rect fill="none" height="10" style="stroke:#181818;stroke-width:1.0;" width="15" x="163" y="405"/><rect fill="none" height="2" style="stroke:#181818;stroke-width:1.0;" width="4" x="161" y="407"/><rect fill="none" height="2" style="stroke:#181818;stroke-width:1.0;" width="4" x="161" y="411"/><text fill="#000000" font-family="sans-serif" font-size="14" font-weight="bold" lengthAdjust="spacing" textLength="97" x="77.5" y="426.5352">tacker-server</text></g><!--cluster tacker-conductor--><g id="cluster_tacker-conductor"><rect fill="none" height="221" rx="2.5" ry="2.5" style="stroke:#181818;stroke-width:1.0;" width="152" x="50" y="530"/><rect fill="none" height="10" style="stroke:#181818;stroke-width:1.0;" width="15" x="182" y="535"/><rect fill="none" height="2" style="stroke:#181818;stroke-width:1.0;" width="4" x="180" y="537"/><rect fill="none" height="2" style="stroke:#181818;stroke-width:1.0;" width="4" x="180" y="541"/><text fill="#000000" font-family="sans-serif" font-size="14" font-weight="bold" lengthAdjust="spacing" textLength="124" x="64" y="556.5352">tacker-conductor</text></g><!--cluster hw--><g id="cluster_hw"><path d="M295.9468,956.9149 C299.9279,951.0441 304.0341,951.3991 308.3014,956.5955 C311.0432,951.5066 315.9788,950.7615 319.7165,955.4303 C322.889,950.2009 327.1869,950.2661 330.6362,955.1308 C333.2706,947.7798 339.4268,947.589 343.5528,953.6997 C347.0089,948.7281 351.9141,947.8788 355.002,954.0771 C358.0197,948.0519 362.0403,946.283 367.1889,951.8338 C371.4938,945.7009 377.758,946.6979 381.0746,952.9426 C385.803,948.0247 389.7992,948.2349 392.7245,954.7758 C396.4493,948.9318 399.9013,949.883 403.9993,954.3686 C408.9538,948.1641 413.1417,950.0019 416.4988,956.0043 C420.227,949.6774 425.7345,949.3962 429.2453,956.2151 C432.8396,950.8794 436.8361,950.793 440.9336,955.6374 C447.5047,958.6358 448.3189,965.2711 442.4749,969.6365 C448.9378,971.7685 450.9784,977.5402 445.5796,982.5287 C453.8565,986.0553 454.1678,991.5472 447.2849,996.8758 C453.8281,1002.168 452.5388,1007.1978 445.3228,1010.5099 C450.8283,1015.3771 450.0698,1019.9645 443.3497,1022.8819 C450.8799,1027.4964 448.6509,1034.5981 441.8188,1037.7319 C438.8351,1043.4241 432.7046,1044.1151 429.3234,1038.1583 C425.9056,1044.4076 421.4145,1045.0476 417.2315,1038.9049 C414.1131,1044.8715 407.6712,1045.9505 403.7708,1039.7715 C400.5572,1044.7211 397.34,1045.764 393.4392,1040.4643 C390.0214,1046.0642 385.3791,1046.769 380.9581,1041.6303 C377.2056,1048.5599 373.1792,1047.1931 368.652,1042.447 C363.7888,1048.6278 360.0077,1048.2869 356.1802,1041.4545 C353.462,1047.2527 348.4862,1047.7814 344.7834,1042.464 C339.5084,1049.3205 333.7015,1047.1753 330.5147,1040.2949 C327.012,1045.2996 322.6491,1045.9059 319.4605,1039.9774 C315.3852,1045.3531 309.5933,1044.9431 307.4735,1038.0646 C303.4711,1042.6438 297.9249,1042.1642 295.5664,1036.207 C289.5479,1033.1881 287.6341,1029.5108 292.6497,1023.8809 C286.6548,1020.7665 286.2539,1015.385 291.4192,1011.1886 C284.2705,1007.5165 283.8104,1000.8586 290.3426,996.2036 C285.3537,991.1411 285.5563,985.6669 292.6068,982.6096 C287.1903,978.393 286.1683,972.2049 293.7073,969.0389 C289.5063,964.6305 289.0477,959.273 295.9468,956.9149 " fill="none" style="stroke:#181818;stroke-width:1.0;"/><text fill="#000000" font-family="sans-serif" font-size="14" font-weight="bold" lengthAdjust="spacing" textLength="146" x="294" y="973.5352">Hardware Resources</text></g><!--entity inst_param--><g id="elem_inst_param"><path d="M47,154.5 L47,202.4766 A2.5,2.5 0 0 0 49.5,204.9766 L142.5,204.9766 A2.5,2.5 0 0 0 145,202.4766 L145,162 L135,152 L49.5,152 A2.5,2.5 0 0 0 47,154.5 " fill="#F1F1F1" style="stroke:#181818;stroke-width:0.5;"/><path d="M135,152 L135,159.5 A2.5,2.5 0 0 0 137.5,162 L145,162 " fill="#F1F1F1" style="stroke:#181818;stroke-width:0.5;"/><text fill="#000000" font-family="sans-serif" font-size="14" lengthAdjust="spacing" textLength="72" x="57" y="175.5352">Instantiate</text><text fill="#000000" font-family="sans-serif" font-size="14" lengthAdjust="spacing" textLength="78" x="57" y="192.0234">parameters</text></g><!--entity vnfd--><g id="elem_vnfd"><path d="M215.5,163 L215.5,194.4883 A2.5,2.5 0 0 0 218,196.9883 L270,196.9883 A2.5,2.5 0 0 0 272.5,194.4883 L272.5,170.5 L262.5,160.5 L218,160.5 A2.5,2.5 0 0 0 215.5,163 " fill="#F1F1F1" style="stroke:#181818;stroke-width:0.5;"/><path d="M262.5,160.5 L262.5,168 A2.5,2.5 0 0 0 265,170.5 L272.5,170.5 " fill="#F1F1F1" style="stroke:#181818;stroke-width:0.5;"/><text fill="#000000" font-family="sans-serif" font-size="14" lengthAdjust="spacing" textLength="37" x="225.5" y="184.0352">VNFD</text></g><!--entity tffile--><g id="elem_tffile"><path d="M307.5,154.5 L307.5,202.4766 A2.5,2.5 0 0 0 310,204.9766 L418,204.9766 A2.5,2.5 0 0 0 420.5,202.4766 L420.5,162 L410.5,152 L310,152 A2.5,2.5 0 0 0 307.5,154.5 " fill="#F1F1F1" style="stroke:#181818;stroke-width:0.5;"/><path d="M410.5,152 L410.5,159.5 A2.5,2.5 0 0 0 413,162 L420.5,162 " fill="#F1F1F1" style="stroke:#181818;stroke-width:0.5;"/><text fill="#000000" font-family="sans-serif" font-size="14" lengthAdjust="spacing" textLength="70" x="317.5" y="175.5352">Terraform</text><text fill="#000000" font-family="sans-serif" font-size="14" lengthAdjust="spacing" textLength="93" x="317.5" y="192.0234">configuration</text></g><!--entity tfvar--><g id="elem_tfvar"><path d="M456,146.5 L456,210.9648 A2.5,2.5 0 0 0 458.5,213.4648 L543.5,213.4648 A2.5,2.5 0 0 0 546,210.9648 L546,154 L536,144 L458.5,144 A2.5,2.5 0 0 0 456,146.5 " fill="#F1F1F1" style="stroke:#181818;stroke-width:0.5;"/><path d="M536,144 L536,151.5 A2.5,2.5 0 0 0 538.5,154 L546,154 " fill="#F1F1F1" style="stroke:#181818;stroke-width:0.5;"/><text fill="#000000" font-family="sans-serif" font-size="14" lengthAdjust="spacing" textLength="70" x="466" y="167.5352">Terraform</text><text fill="#000000" font-family="sans-serif" font-size="14" lengthAdjust="spacing" textLength="61" x="466" y="184.0234">variables</text><text fill="#000000" font-family="sans-serif" font-size="14" lengthAdjust="spacing" textLength="21" x="466" y="200.5117">file</text></g><!--entity serv--><g id="elem_serv"><rect fill="#F1F1F1" height="46.4883" rx="2.5" ry="2.5" style="stroke:#181818;stroke-width:0.5;" width="82" x="85" y="435"/><rect fill="#F1F1F1" height="10" style="stroke:#181818;stroke-width:0.5;" width="15" x="147" y="440"/><rect fill="#F1F1F1" height="2" style="stroke:#181818;stroke-width:0.5;" width="4" x="145" y="442"/><rect fill="#F1F1F1" height="2" style="stroke:#181818;stroke-width:0.5;" width="4" x="145" y="446"/><text fill="#000000" font-family="sans-serif" font-size="14" lengthAdjust="spacing" textLength="42" x="100" y="468.5352">server</text></g><!--entity cond--><g id="elem_cond"><rect fill="#F1F1F1" height="46.4883" rx="2.5" ry="2.5" style="stroke:#181818;stroke-width:0.5;" width="110" x="71" y="565"/><rect fill="#F1F1F1" height="10" style="stroke:#181818;stroke-width:0.5;" width="15" x="161" y="570"/><rect fill="#F1F1F1" height="2" style="stroke:#181818;stroke-width:0.5;" width="4" x="159" y="572"/><rect fill="#F1F1F1" height="2" style="stroke:#181818;stroke-width:0.5;" width="4" x="159" y="576"/><text fill="#000000" font-family="sans-serif" font-size="14" lengthAdjust="spacing" textLength="70" x="86" y="598.5352">conductor</text></g><!--entity infra--><g id="elem_infra"><rect fill="#F1F1F1" height="62.9766" rx="2.5" ry="2.5" style="stroke:#181818;stroke-width:0.5;" width="120" x="66" y="672"/><rect fill="#F1F1F1" height="10" style="stroke:#181818;stroke-width:0.5;" width="15" x="166" y="677"/><rect fill="#F1F1F1" height="2" style="stroke:#181818;stroke-width:0.5;" width="4" x="164" y="679"/><rect fill="#F1F1F1" height="2" style="stroke:#181818;stroke-width:0.5;" width="4" x="164" y="683"/><text fill="#000000" font-family="sans-serif" font-size="14" lengthAdjust="spacing" textLength="70" x="81" y="705.5352">Terraform</text><text fill="#000000" font-family="sans-serif" font-size="14" lengthAdjust="spacing" textLength="80" x="81" y="722.0234">infra-driver</text></g><!--entity ins1--><g id="elem_ins1"><polygon fill="#F1F1F1" points="336.5,992,346.5,982,397.5,982,397.5,1018.4883,387.5,1028.4883,336.5,1028.4883,336.5,992" style="stroke:#181818;stroke-width:0.5;"/><line style="stroke:#181818;stroke-width:0.5;" x1="387.5" x2="397.5" y1="992" y2="982"/><line style="stroke:#181818;stroke-width:0.5;" x1="336.5" x2="387.5" y1="992" y2="992"/><line style="stroke:#181818;stroke-width:0.5;" x1="387.5" x2="387.5" y1="992" y2="1028.4883"/><text fill="#000000" font-family="sans-serif" font-size="14" lengthAdjust="spacing" textLength="21" x="351.5" y="1015.5352">VM</text></g><!--entity Terraform--><g id="elem_Terraform"><polygon fill="#F1F1F1" points="71,848,81,838,181,838,181,874.4883,171,884.4883,71,884.4883,71,848" style="stroke:#181818;stroke-width:0.5;"/><line style="stroke:#181818;stroke-width:0.5;" x1="171" x2="181" y1="848" y2="838"/><line style="stroke:#181818;stroke-width:0.5;" x1="71" x2="171" y1="848" y2="848"/><line style="stroke:#181818;stroke-width:0.5;" x1="171" x2="171" y1="848" y2="884.4883"/><text fill="#000000" font-family="sans-serif" font-size="14" lengthAdjust="spacing" textLength="70" x="86" y="871.5352">Terraform</text></g><!--entity ts--><g id="elem_ts"><polygon fill="#F1F1F1" points="298.5,848,308.5,838,435.5,838,435.5,874.4883,425.5,884.4883,298.5,884.4883,298.5,848" style="stroke:#181818;stroke-width:0.5;"/><line style="stroke:#181818;stroke-width:0.5;" x1="425.5" x2="435.5" y1="848" y2="838"/><line style="stroke:#181818;stroke-width:0.5;" x1="298.5" x2="425.5" y1="848" y2="848"/><line style="stroke:#181818;stroke-width:0.5;" x1="425.5" x2="425.5" y1="848" y2="884.4883"/><text fill="#000000" font-family="sans-serif" font-size="14" lengthAdjust="spacing" textLength="97" x="313.5" y="871.5352">Target Service</text></g><!--link vnfd to tffile--><!--link tffile to tfvar--><!--link vnfpkg to serv--><g id="link_vnfpkg_serv"><path d="M181.7958,237.1313 C181.7901,237.6266 181.7838,238.1238 181.7769,238.623 C181.7632,239.6213 181.7471,240.6272 181.7286,241.6403 C181.6915,243.6665 181.6445,245.7215 181.5867,247.8019 C181.471,251.9627 181.3118,256.2251 181.1011,260.5627 C180.6796,269.2378 180.052,278.2132 179.1536,287.2761 C177.3569,305.4019 174.4775,323.8775 170,341 C161.23,374.55 148.4875,406.2798 138.4575,429.2898 " fill="none" id="vnfpkg-to-serv" style="stroke:#181818;stroke-width:1.0;"/><polygon fill="#181818" points="136.06,434.79,143.3231,428.1381,138.0579,430.2065,135.9895,424.9414,136.06,434.79" style="stroke:#181818;stroke-width:1.0;"/><text fill="#000000" font-family="sans-serif" font-size="13" lengthAdjust="spacing" textLength="66" x="179.5" y="322.5684">1. Request</text><text fill="#000000" font-family="sans-serif" font-size="13" lengthAdjust="spacing" textLength="67" x="181" y="337.8789">create VNF</text></g><!--link inst_param to serv--><g id="link_inst_param_serv"><path d="M83.83,205.41 C70.39,237.46 52.12,293.59 64,341 C72.82,376.22 91.2239,407.48 106.4639,429.87 " fill="none" id="inst_param-to-serv" style="stroke:#181818;stroke-width:1.0;"/><polygon fill="#181818" points="109.84,434.83,108.0825,425.1392,107.0266,430.6966,101.4692,429.6407,109.84,434.83" style="stroke:#181818;stroke-width:1.0;"/><text fill="#000000" font-family="sans-serif" font-size="13" lengthAdjust="spacing" textLength="66" x="82" y="322.5684">2. Request</text><text fill="#000000" font-family="sans-serif" font-size="13" lengthAdjust="spacing" textLength="96" x="69" y="337.8789">instantiate VNF</text></g><!--link serv to cond--><g id="link_serv_cond"><path d="M126,481.3 C126,504.65 126,535.11 126,558.53 " fill="none" id="serv-to-cond" style="stroke:#181818;stroke-width:1.0;"/><polygon fill="#181818" points="126,564.53,130,555.53,126,559.53,122,555.53,126,564.53" style="stroke:#181818;stroke-width:1.0;"/></g><!--link cond to infra--><g id="link_cond_infra"><path d="M126,611.42 C126,628.61 126,646.52 126,665.53 " fill="none" id="cond-to-infra" style="stroke:#181818;stroke-width:1.0;"/><polygon fill="#181818" points="126,671.53,130,662.53,126,666.53,122,662.53,126,671.53" style="stroke:#181818;stroke-width:1.0;"/></g><!--link infra to Terraform--><g id="link_infra_Terraform"><path d="M126,735.22 C126,765.49 126,805 126,831.88 " fill="none" id="infra-to-Terraform" style="stroke:#181818;stroke-width:1.0;"/><polygon fill="#181818" points="126,837.88,130,828.88,126,832.88,122,828.88,126,837.88" style="stroke:#181818;stroke-width:1.0;"/><text fill="#000000" font-family="sans-serif" font-size="13" lengthAdjust="spacing" textLength="197" x="127" y="804.5684">3. Execute Terraform command</text></g><!--link Terraform to ts--><g id="link_Terraform_ts"><path d="M181.29,861 C216.03,861 255.12,861 292.17,861 " fill="none" id="Terraform-to-ts" style="stroke:#181818;stroke-width:1.0;"/><polygon fill="#181818" points="298.17,861,289.17,857,293.17,861,289.17,865,298.17,861" style="stroke:#181818;stroke-width:1.0;"/><text fill="#000000" font-family="sans-serif" font-size="13" lengthAdjust="spacing" textLength="81" x="199.25" y="839.5684">4. Call target</text><text fill="#000000" font-family="sans-serif" font-size="13" lengthAdjust="spacing" textLength="68" x="207.75" y="854.8789">service API</text></g><!--link ts to ins1--><g id="link_ts_ins1"><path d="M367,884.19 C367,910.86 367,949.36 367,975.97 " fill="none" id="ts-to-ins1" style="stroke:#181818;stroke-width:1.0;"/><polygon fill="#181818" points="367,981.97,371,972.97,367,976.97,363,972.97,367,981.97" style="stroke:#181818;stroke-width:1.0;"/><text fill="#000000" font-family="sans-serif" font-size="13" lengthAdjust="spacing" textLength="94" x="368" y="927.5684">5. Create VM(s)</text></g><!--SRC=[VL9DJyCm3BtdLrZb01mwQNnSUfY4-10x34s0k324GfgsqTga9Ea6GlllE4cxTcWZXpQsttFiPsUQLXoY-jiMIiQMiYNNh1HSsWX-2E1XgggLH0T48HntSMeWN5kaEpL2Q8uPNnxkO1uCZrp9h5xc0wGxcIW3zAR3f7lYprnhcYbTBIHJCXDvewaLIdgEpHpeVzQAQa4_IcuMqiLQ7dgtj0tP9K-biLHQGIrVo9ewaIpNnZC5njwzZmJgXX1NESIlXKXJBjycNLNXj-Dthv8ig1xqF2oquNhLn_zWkY1MvAwaRsFFn9HC6sRLeLo3k1igMljG0qM5n1RYL8kk1E_ezP0g7OuWsdgephc59onOi7OGXh1IDIb4zrIdQwevF7AZ6iruqBjOjqM752-pRWfZzzBn4S9Blm-c4BKXxQB5ySJhai1uX8ZFXXkxaC0qnva2hXpfvpW0dmt1ejy2pt0GZ_KAkO-tGk_-w-rjsmcSZ-3sYxC64sozJjAAOeBU4skH5nQfrYHmCO9hMfPWlLPOXWbgmTLyIgnfdpJZ12uHsVOpEp6dv1S0]--></g></svg>