<?xml version="1.0" encoding="us-ascii" standalone="no"?><svg xmlns="http://www.w3.org/2000/svg" xmlns:xlink="http://www.w3.org/1999/xlink" contentStyleType="text/css" height="1098px" preserveAspectRatio="none" style="width:1023px;height:1098px;background:#FFFFFF;" version="1.1" viewBox="0 0 1023 1098" width="1023px" zoomAndPan="magnify"><defs/><g><!--cluster da--><g id="cluster_da"><path d="M796.5,6 L1003.5,6 A3.75,3.75 0 0 1 1006,8.5 L1013,28.4883 L1013.5,28.4883 A2.5,2.5 0 0 1 1016,30.9883 L1016,338.5 A2.5,2.5 0 0 1 1013.5,341 L796.5,341 A2.5,2.5 0 0 1 794,338.5 L794,8.5 A2.5,2.5 0 0 1 796.5,6 " fill="none" style="stroke:#000000;stroke-width:1.5;"/><line style="stroke:#000000;stroke-width:1.5;" x1="794" x2="1013" y1="28.4883" y2="28.4883"/><text fill="#000000" font-family="sans-serif" font-size="14" font-weight="bold" lengthAdjust="spacing" textLength="206" x="798" y="21.5352">Directory for VNF Instance A</text></g><!--cluster db--><g id="cluster_db"><path d="M796.5,756 L1002.5,756 A3.75,3.75 0 0 1 1005,758.5 L1012,778.4883 L1012.5,778.4883 A2.5,2.5 0 0 1 1015,780.9883 L1015,1088.5 A2.5,2.5 0 0 1 1012.5,1091 L796.5,1091 A2.5,2.5 0 0 1 794,1088.5 L794,758.5 A2.5,2.5 0 0 1 796.5,756 " fill="none" style="stroke:#000000;stroke-width:1.5;"/><line style="stroke:#000000;stroke-width:1.5;" x1="794" x2="1012" y1="778.4883" y2="778.4883"/><text fill="#000000" font-family="sans-serif" font-size="14" font-weight="bold" lengthAdjust="spacing" textLength="205" x="798" y="771.5352">Directory for VNF Instance B</text></g><!--cluster dc--><g id="cluster_dc"><path d="M796.5,381 L1003.5,381 A3.75,3.75 0 0 1 1006,383.5 L1013,403.4883 L1013.5,403.4883 A2.5,2.5 0 0 1 1016,405.9883 L1016,713.5 A2.5,2.5 0 0 1 1013.5,716 L796.5,716 A2.5,2.5 0 0 1 794,713.5 L794,383.5 A2.5,2.5 0 0 1 796.5,381 " fill="none" style="stroke:#000000;stroke-width:1.5;"/><line style="stroke:#000000;stroke-width:1.5;" x1="794" x2="1013" y1="403.4883" y2="403.4883"/><text fill="#000000" font-family="sans-serif" font-size="14" font-weight="bold" lengthAdjust="spacing" textLength="206" x="798" y="396.5352">Directory for VNF Instance C</text></g><!--entity ca--><g id="elem_ca"><path d="M846.5,70.5 L846.5,101.9883 A2.5,2.5 0 0 0 849,104.4883 L960,104.4883 A2.5,2.5 0 0 0 962.5,101.9883 L962.5,78 L952.5,68 L849,68 A2.5,2.5 0 0 0 846.5,70.5 " fill="#F1F1F1" style="stroke:#181818;stroke-width:0.5;"/><path d="M952.5,68 L952.5,75.5 A2.5,2.5 0 0 0 955,78 L962.5,78 " fill="#F1F1F1" style="stroke:#181818;stroke-width:0.5;"/><text fill="#000000" font-family="sans-serif" font-size="14" lengthAdjust="spacing" textLength="96" x="856.5" y="91.5352">Configuration</text></g><!--entity va--><g id="elem_va"><path d="M863,141.5 L863,172.9883 A2.5,2.5 0 0 0 865.5,175.4883 L943.5,175.4883 A2.5,2.5 0 0 0 946,172.9883 L946,149 L936,139 L865.5,139 A2.5,2.5 0 0 0 863,141.5 " fill="#F1F1F1" style="stroke:#181818;stroke-width:0.5;"/><path d="M936,139 L936,146.5 A2.5,2.5 0 0 0 938.5,149 L946,149 " fill="#F1F1F1" style="stroke:#181818;stroke-width:0.5;"/><text fill="#000000" font-family="sans-serif" font-size="14" lengthAdjust="spacing" textLength="63" x="873" y="162.5352">Variables</text></g><!--entity statea--><g id="elem_statea"><path d="M858,283.5 L858,314.9883 A2.5,2.5 0 0 0 860.5,317.4883 L948.5,317.4883 A2.5,2.5 0 0 0 951,314.9883 L951,291 L941,281 L860.5,281 A2.5,2.5 0 0 0 858,283.5 " fill="#F1F1F1" style="stroke:#181818;stroke-width:0.5;"/><path d="M941,281 L941,288.5 A2.5,2.5 0 0 0 943.5,291 L951,291 " fill="#F1F1F1" style="stroke:#181818;stroke-width:0.5;"/><text fill="#000000" font-family="sans-serif" font-size="14" lengthAdjust="spacing" textLength="73" x="868" y="304.5352">State file A</text></g><!--entity statelocka--><g id="elem_statelocka"><path d="M842,212.5 L842,243.9883 A2.5,2.5 0 0 0 844.5,246.4883 L964.5,246.4883 A2.5,2.5 0 0 0 967,243.9883 L967,220 L957,210 L844.5,210 A2.5,2.5 0 0 0 842,212.5 " fill="#F1F1F1" style="stroke:#181818;stroke-width:0.5;"/><path d="M957,210 L957,217.5 A2.5,2.5 0 0 0 959.5,220 L967,220 " fill="#F1F1F1" style="stroke:#181818;stroke-width:0.5;"/><text fill="#000000" font-family="sans-serif" font-size="14" lengthAdjust="spacing" textLength="105" x="852" y="233.5352">State lock file A</text></g><!--entity cb--><g id="elem_cb"><path d="M846.5,801.5 L846.5,832.9883 A2.5,2.5 0 0 0 849,835.4883 L960,835.4883 A2.5,2.5 0 0 0 962.5,832.9883 L962.5,809 L952.5,799 L849,799 A2.5,2.5 0 0 0 846.5,801.5 " fill="#F1F1F1" style="stroke:#181818;stroke-width:0.5;"/><path d="M952.5,799 L952.5,806.5 A2.5,2.5 0 0 0 955,809 L962.5,809 " fill="#F1F1F1" style="stroke:#181818;stroke-width:0.5;"/><text fill="#000000" font-family="sans-serif" font-size="14" lengthAdjust="spacing" textLength="96" x="856.5" y="822.5352">Configuration</text></g><!--entity vb--><g id="elem_vb"><path d="M863,872.5 L863,903.9883 A2.5,2.5 0 0 0 865.5,906.4883 L943.5,906.4883 A2.5,2.5 0 0 0 946,903.9883 L946,880 L936,870 L865.5,870 A2.5,2.5 0 0 0 863,872.5 " fill="#F1F1F1" style="stroke:#181818;stroke-width:0.5;"/><path d="M936,870 L936,877.5 A2.5,2.5 0 0 0 938.5,880 L946,880 " fill="#F1F1F1" style="stroke:#181818;stroke-width:0.5;"/><text fill="#000000" font-family="sans-serif" font-size="14" lengthAdjust="spacing" textLength="63" x="873" y="893.5352">Variables</text></g><!--entity statelockb--><g id="elem_statelockb"><path d="M843,943.5 L843,974.9883 A2.5,2.5 0 0 0 845.5,977.4883 L963.5,977.4883 A2.5,2.5 0 0 0 966,974.9883 L966,951 L956,941 L845.5,941 A2.5,2.5 0 0 0 843,943.5 " fill="#F1F1F1" style="stroke:#181818;stroke-width:0.5;"/><path d="M956,941 L956,948.5 A2.5,2.5 0 0 0 958.5,951 L966,951 " fill="#F1F1F1" style="stroke:#181818;stroke-width:0.5;"/><text fill="#000000" font-family="sans-serif" font-size="14" lengthAdjust="spacing" textLength="103" x="853" y="964.5352">State lock file B</text></g><!--entity stateb--><g id="elem_stateb"><path d="M859,1014.5 L859,1045.9883 A2.5,2.5 0 0 0 861.5,1048.4883 L947.5,1048.4883 A2.5,2.5 0 0 0 950,1045.9883 L950,1022 L940,1012 L861.5,1012 A2.5,2.5 0 0 0 859,1014.5 " fill="#F1F1F1" style="stroke:#181818;stroke-width:0.5;"/><path d="M940,1012 L940,1019.5 A2.5,2.5 0 0 0 942.5,1022 L950,1022 " fill="#F1F1F1" style="stroke:#181818;stroke-width:0.5;"/><text fill="#000000" font-family="sans-serif" font-size="14" lengthAdjust="spacing" textLength="71" x="869" y="1035.5352">State file B</text></g><!--entity cc--><g id="elem_cc"><path d="M846.5,445.5 L846.5,476.9883 A2.5,2.5 0 0 0 849,479.4883 L960,479.4883 A2.5,2.5 0 0 0 962.5,476.9883 L962.5,453 L952.5,443 L849,443 A2.5,2.5 0 0 0 846.5,445.5 " fill="#F1F1F1" style="stroke:#181818;stroke-width:0.5;"/><path d="M952.5,443 L952.5,450.5 A2.5,2.5 0 0 0 955,453 L962.5,453 " fill="#F1F1F1" style="stroke:#181818;stroke-width:0.5;"/><text fill="#000000" font-family="sans-serif" font-size="14" lengthAdjust="spacing" textLength="96" x="856.5" y="466.5352">Configuration</text></g><!--entity vc--><g id="elem_vc"><path d="M863,516.5 L863,547.9883 A2.5,2.5 0 0 0 865.5,550.4883 L943.5,550.4883 A2.5,2.5 0 0 0 946,547.9883 L946,524 L936,514 L865.5,514 A2.5,2.5 0 0 0 863,516.5 " fill="#F1F1F1" style="stroke:#181818;stroke-width:0.5;"/><path d="M936,514 L936,521.5 A2.5,2.5 0 0 0 938.5,524 L946,524 " fill="#F1F1F1" style="stroke:#181818;stroke-width:0.5;"/><text fill="#000000" font-family="sans-serif" font-size="14" lengthAdjust="spacing" textLength="63" x="873" y="537.5352">Variables</text></g><!--entity statelockc--><g id="elem_statelockc"><path d="M842,658.5 L842,689.9883 A2.5,2.5 0 0 0 844.5,692.4883 L964.5,692.4883 A2.5,2.5 0 0 0 967,689.9883 L967,666 L957,656 L844.5,656 A2.5,2.5 0 0 0 842,658.5 " fill="#F1F1F1" style="stroke:#181818;stroke-width:0.5;"/><path d="M957,656 L957,663.5 A2.5,2.5 0 0 0 959.5,666 L967,666 " fill="#F1F1F1" style="stroke:#181818;stroke-width:0.5;"/><text fill="#000000" font-family="sans-serif" font-size="14" lengthAdjust="spacing" textLength="105" x="852" y="679.5352">State lock file C</text></g><!--entity statec--><g id="elem_statec"><path d="M858,587.5 L858,618.9883 A2.5,2.5 0 0 0 860.5,621.4883 L948.5,621.4883 A2.5,2.5 0 0 0 951,618.9883 L951,595 L941,585 L860.5,585 A2.5,2.5 0 0 0 858,587.5 " fill="#F1F1F1" style="stroke:#181818;stroke-width:0.5;"/><path d="M941,585 L941,592.5 A2.5,2.5 0 0 0 943.5,595 L951,595 " fill="#F1F1F1" style="stroke:#181818;stroke-width:0.5;"/><text fill="#000000" font-family="sans-serif" font-size="14" lengthAdjust="spacing" textLength="73" x="868" y="608.5352">State file C</text></g><!--entity tfid--><g id="elem_tfid"><rect fill="#F1F1F1" height="46.4883" rx="2.5" ry="2.5" style="stroke:#181818;stroke-width:0.5;" width="194" x="262" y="439"/><rect fill="#F1F1F1" height="10" style="stroke:#181818;stroke-width:0.5;" width="15" x="436" y="444"/><rect fill="#F1F1F1" height="2" style="stroke:#181818;stroke-width:0.5;" width="4" x="434" y="446"/><rect fill="#F1F1F1" height="2" style="stroke:#181818;stroke-width:0.5;" width="4" x="434" y="450"/><text fill="#000000" font-family="sans-serif" font-size="14" lengthAdjust="spacing" textLength="154" x="277" y="472.5352">Terraform infra-driver</text></g><!--entity pkga--><g id="elem_pkga"><path d="M8.5,479 L49.5,479 A3.75,3.75 0 0 1 52,481.5 L59,500 L134.5,500 A2.5,2.5 0 0 1 137,502.5 L137,530.9883 A2.5,2.5 0 0 1 134.5,533.4883 L8.5,533.4883 A2.5,2.5 0 0 1 6,530.9883 L6,481.5 A2.5,2.5 0 0 1 8.5,479 " fill="#F1F1F1" style="stroke:#181818;stroke-width:0.5;"/><line style="stroke:#181818;stroke-width:0.5;" x1="6" x2="59" y1="500" y2="500"/><text fill="#000000" font-family="sans-serif" font-size="14" lengthAdjust="spacing" textLength="101" x="16" y="520.5352">VNF Package A</text></g><!--entity pkgb--><g id="elem_pkgb"><path d="M9.5,390 L50.5,390 A3.75,3.75 0 0 1 53,392.5 L60,411 L133.5,411 A2.5,2.5 0 0 1 136,413.5 L136,441.9883 A2.5,2.5 0 0 1 133.5,444.4883 L9.5,444.4883 A2.5,2.5 0 0 1 7,441.9883 L7,392.5 A2.5,2.5 0 0 1 9.5,390 " fill="#F1F1F1" style="stroke:#181818;stroke-width:0.5;"/><line style="stroke:#181818;stroke-width:0.5;" x1="7" x2="60" y1="411" y2="411"/><text fill="#000000" font-family="sans-serif" font-size="14" lengthAdjust="spacing" textLength="99" x="17" y="431.5352">VNF Package B</text></g><!--entity tf--><g id="elem_tf"><rect fill="#F1F1F1" height="46.4883" rx="2.5" ry="2.5" style="stroke:#181818;stroke-width:0.5;" width="110" x="577.5" y="580"/><rect fill="#F1F1F1" height="10" style="stroke:#181818;stroke-width:0.5;" width="15" x="667.5" y="585"/><rect fill="#F1F1F1" height="2" style="stroke:#181818;stroke-width:0.5;" width="4" x="665.5" y="587"/><rect fill="#F1F1F1" height="2" style="stroke:#181818;stroke-width:0.5;" width="4" x="665.5" y="591"/><text fill="#000000" font-family="sans-serif" font-size="14" lengthAdjust="spacing" textLength="70" x="592.5" y="613.5352">Terraform</text></g><!--link dc to db--><!--link db to da--><!--link tfid to tf--><g id="link_tfid_tf"><path d="M405.14,485.44 C455.35,511.52 530.6754,550.6344 580.9254,576.7344 " fill="none" id="tfid-to-tf" style="stroke:#181818;stroke-width:1.0;"/><polygon fill="#181818" points="586.25,579.5,580.1068,571.8018,581.8128,577.1953,576.4194,578.9013,586.25,579.5" style="stroke:#181818;stroke-width:1.0;"/><text fill="#000000" font-family="sans-serif" font-size="13" lengthAdjust="spacing" textLength="49" x="487" y="525.5684">Execute</text></g><!--link pkga to tfid--><g id="link_pkga_tfid"><path d="M137.28,496.02 C174.05,490.35 214.8501,484.0645 255.8301,477.7445 " fill="none" id="pkga-to-tfid" style="stroke:#181818;stroke-width:1.0;"/><polygon fill="#181818" points="261.76,476.83,252.2555,474.2485,256.8184,477.5921,253.4748,482.155,261.76,476.83" style="stroke:#181818;stroke-width:1.0;"/><text fill="#000000" font-family="sans-serif" font-size="13" lengthAdjust="spacing" textLength="63" x="168" y="479.5684">Download</text></g><!--link pkgb to tfid--><g id="link_pkgb_tfid"><path d="M136.22,427.04 C173.11,432.86 214.3632,439.3555 255.7132,445.8755 " fill="none" id="pkgb-to-tfid" style="stroke:#181818;stroke-width:1.0;"/><polygon fill="#181818" points="261.64,446.81,253.3729,441.457,256.701,446.0312,252.1268,449.3594,261.64,446.81" style="stroke:#181818;stroke-width:1.0;"/><text fill="#000000" font-family="sans-serif" font-size="13" lengthAdjust="spacing" textLength="63" x="168" y="429.5684">Download</text></g><!--link tfid to da--><g id="link_tfid_da"><path d="M375.54,438.61 C424.68,366.77 584.96,148.36 778,52 C781.1056,50.45 784.3041,49.0188 787.5724,47.6976 C789.2065,47.037 790.858,46.404 792.5241,45.7973 C792.9406,45.6456 787.7033,47.5015 788.1215,47.3532 " fill="none" id="tfid-to-da" style="stroke:#181818;stroke-width:1.0;"/><polygon fill="#181818" points="793.7763,45.3472,783.9569,44.5863,789.064,47.0188,786.6314,52.126,793.7763,45.3472" style="stroke:#181818;stroke-width:1.0;"/><text fill="#000000" font-family="sans-serif" font-size="13" lengthAdjust="spacing" textLength="129" x="568" y="98.5684">Copy VNF Package A</text></g><!--link tfid to db--><g id="link_tfid_db"><path d="M368.18,485.41 C401.74,577.69 538.65,918.24 778,1064 C780.9644,1065.805 784.039,1067.4598 787.1992,1068.9761 C788.7792,1069.7342 790.3807,1070.4577 792.0004,1071.148 C792.4053,1071.3206 792.8114,1071.4911 793.2185,1071.6595 C793.4221,1071.7438 788.0698,1069.5627 788.2739,1069.6459 " fill="none" id="tfid-to-db" style="stroke:#181818;stroke-width:1.0;"/><polygon fill="#181818" points="793.8301,1071.9107,787.0057,1064.8094,789.2,1070.0234,783.986,1072.2176,793.8301,1071.9107" style="stroke:#181818;stroke-width:1.0;"/><text fill="#000000" font-family="sans-serif" font-size="13" lengthAdjust="spacing" textLength="129" x="568" y="865.5684">Copy VNF Package A</text></g><!--link tfid to dc--><g id="link_tfid_dc"><path d="M456.23,452.44 C533.67,444.745 644.3525,433.7475 736.2363,424.6188 C747.7217,423.4777 758.9135,422.3658 769.7098,421.2932 C775.108,420.7569 780.4073,420.2304 785.5951,419.715 C788.189,419.4573 784.7844,419.7955 787.321,419.5436 " fill="none" id="tfid-to-dc" style="stroke:#181818;stroke-width:1.0;"/><polygon fill="#181818" points="793.2916,418.9504,783.9402,415.8597,788.3161,419.4447,784.7311,423.8205,793.2916,418.9504" style="stroke:#181818;stroke-width:1.0;"/><text fill="#000000" font-family="sans-serif" font-size="13" lengthAdjust="spacing" textLength="127" x="569" y="425.5684">Copy VNF Package B</text></g><!--link tf to statea--><g id="link_tf_statea"><path d="M687.74,584.11 C717.39,570.77 751.71,549.72 770,519 C786.62,491.08 761.12,400.76 778,373 C795.74,343.82 824.1119,327.1 852.2219,315.67 " fill="none" id="tf-to-statea" style="stroke:#181818;stroke-width:1.0;"/><polygon fill="#181818" points="857.78,313.41,847.9362,313.0946,853.1483,315.2933,850.9495,320.5054,857.78,313.41" style="stroke:#181818;stroke-width:1.0;"/><text fill="#000000" font-family="sans-serif" font-size="13" lengthAdjust="spacing" textLength="40" x="729" y="515.5684">Create</text></g><!--link tf to statelocka--><g id="link_tf_statelocka"><path d="M644.07,579.56 C657,550.79 679.45,500.45 698,457 C734.63,371.23 708.24,324.91 778,263 C795.51,247.46 813.518,240.0495 835.738,235.1995 " fill="none" id="tf-to-statelocka" style="stroke:#181818;stroke-width:1.0;"/><polygon fill="#181818" points="841.6,233.92,831.954,231.9313,836.715,234.9863,833.66,239.7472,841.6,233.92" style="stroke:#181818;stroke-width:1.0;"/><text fill="#000000" font-family="sans-serif" font-size="13" lengthAdjust="spacing" textLength="40" x="729" y="270.5684">Create</text></g><!--link tf to stateb--><g id="link_tf_stateb"><path d="M634.78,626.08 C639.81,693.68 664.1,892.84 778,994 C800.12,1013.64 826.3713,1021.6878 852.6013,1025.7678 " fill="none" id="tf-to-stateb" style="stroke:#181818;stroke-width:1.0;"/><polygon fill="#181818" points="858.53,1026.69,850.2517,1021.3542,853.5894,1025.9215,849.0221,1029.2592,858.53,1026.69" style="stroke:#181818;stroke-width:1.0;"/><text fill="#000000" font-family="sans-serif" font-size="13" lengthAdjust="spacing" textLength="40" x="729" y="941.5684">Create</text></g><!--link tf to statelockb--><g id="link_tf_statelockb"><path d="M650.67,626.43 C680.63,668.68 741.94,761.5 770,850 C774.93,865.56 767.48,910.52 778,923 C793.92,941.89 813.1458,950.0981 836.7358,954.5881 " fill="none" id="tf-to-statelockb" style="stroke:#181818;stroke-width:1.0;"/><polygon fill="#181818" points="842.63,955.71,834.5366,950.0977,837.7182,954.7751,833.0408,957.9567,842.63,955.71" style="stroke:#181818;stroke-width:1.0;"/><text fill="#000000" font-family="sans-serif" font-size="13" lengthAdjust="spacing" textLength="40" x="729" y="754.5684">Create</text></g><!--link tf to statec--><g id="link_tf_statec"><path d="M687.81,603 C737.71,603 804.83,603 851.8,603 " fill="none" id="tf-to-statec" style="stroke:#181818;stroke-width:1.0;"/><polygon fill="#181818" points="857.8,603,848.8,599,852.8,603,848.8,607,857.8,603" style="stroke:#181818;stroke-width:1.0;"/><text fill="#000000" font-family="sans-serif" font-size="13" lengthAdjust="spacing" textLength="40" x="729" y="599.5684">Create</text></g><!--link tf to statelockc--><g id="link_tf_statelockc"><path d="M687.96,617.43 C701.07,620.9 715.04,624.59 728,628 C765.77,637.95 802.3259,647.5295 835.9559,656.3395 " fill="none" id="tf-to-statelockc" style="stroke:#181818;stroke-width:1.0;"/><polygon fill="#181818" points="841.76,657.86,834.0675,651.7098,836.9232,656.5929,832.0401,659.4487,841.76,657.86" style="stroke:#181818;stroke-width:1.0;"/><text fill="#000000" font-family="sans-serif" font-size="13" lengthAdjust="spacing" textLength="40" x="729" y="624.5684">Create</text></g><!--SRC=[ZPD1JiCm44NtFiKeB5Zv0XMgH5EGs204g1l4OcnFKYkf7JbkeKBS7SUXuBP9swoYUT_ni_LJK-71Mt2wN7fGsf7qsXh6f5qrrf3naBsISrXOjm9j2eTSERqXbm6su0kjM65hHGwonUCzFA6ii2IuZRYfIXp4inqMVtWUzxPk2s4hwC8FflLevEvZ2k6BGNWANHDakJM5BjSEEzyOa9ZW1JgDegOseasANZnwwj_xBxVTu3XHMraTnReXikzBjFj3Ad5EMunhYnDIitqfCNp292KkqyvxRNbEMuvhonFQ-Rws7DPEKZ9e1nl-jjHAaNcVXYjbuLRJ0GxszRUYZ5rVmJFLqRrTwgPbNM-1JmESmDqdoRMdVdR3rmsFlPt0t7wOsg8w8EAGSCuxXGdajjd2tb-G1iIvW1m8p480eCDzIKF44KRRP1nBEOp4-8eH9CTN_ACV]--></g></svg>