<?xml version="1.0" encoding="us-ascii" standalone="no"?><svg xmlns="http://www.w3.org/2000/svg" xmlns:xlink="http://www.w3.org/1999/xlink" contentStyleType="text/css" height="210px" preserveAspectRatio="none" style="width:891px;height:210px;background:#FFFFFF;" version="1.1" viewBox="0 0 891 210" width="891px" zoomAndPan="magnify"><defs/><g><!--entity user--><g id="elem_user"><ellipse cx="141.5" cy="14" fill="#F1F1F1" rx="8" ry="8" style="stroke:#181818;stroke-width:0.5;"/><path d="M141.5,22 L141.5,49 M128.5,30 L154.5,30 M141.5,49 L128.5,64 M141.5,49 L154.5,64 " fill="none" style="stroke:#181818;stroke-width:0.5;"/><text fill="#000000" font-family="sans-serif" font-size="14" lengthAdjust="spacing" textLength="31" x="126" y="79.0352">User</text></g><!--entity cli--><g id="elem_cli"><rect fill="#F1F1F1" height="46.4883" rx="2.5" ry="2.5" style="stroke:#181818;stroke-width:0.5;" width="135" x="192" y="20.5"/><rect fill="#F1F1F1" height="10" style="stroke:#181818;stroke-width:0.5;" width="15" x="307" y="25.5"/><rect fill="#F1F1F1" height="2" style="stroke:#181818;stroke-width:0.5;" width="4" x="305" y="27.5"/><rect fill="#F1F1F1" height="2" style="stroke:#181818;stroke-width:0.5;" width="4" x="305" y="31.5"/><text fill="#000000" font-family="sans-serif" font-size="14" lengthAdjust="spacing" textLength="95" x="207" y="54.0352">Terraform CLI</text></g><!--entity tf--><g id="elem_tf"><rect fill="#F1F1F1" height="46.4883" rx="2.5" ry="2.5" style="stroke:#181818;stroke-width:0.5;" width="110" x="530.5" y="20.5"/><rect fill="#F1F1F1" height="10" style="stroke:#181818;stroke-width:0.5;" width="15" x="620.5" y="25.5"/><rect fill="#F1F1F1" height="2" style="stroke:#181818;stroke-width:0.5;" width="4" x="618.5" y="27.5"/><rect fill="#F1F1F1" height="2" style="stroke:#181818;stroke-width:0.5;" width="4" x="618.5" y="31.5"/><text fill="#000000" font-family="sans-serif" font-size="14" lengthAdjust="spacing" textLength="70" x="545.5" y="54.0352">Terraform</text></g><!--entity config--><g id="elem_config"><rect fill="#F1F1F1" height="46.4883" rx="2.5" ry="2.5" style="stroke:#181818;stroke-width:0.5;" width="161" x="7" y="158.5"/><rect fill="#F1F1F1" height="10" style="stroke:#181818;stroke-width:0.5;" width="15" x="148" y="163.5"/><rect fill="#F1F1F1" height="2" style="stroke:#181818;stroke-width:0.5;" width="4" x="146" y="165.5"/><rect fill="#F1F1F1" height="2" style="stroke:#181818;stroke-width:0.5;" width="4" x="146" y="169.5"/><text fill="#000000" font-family="sans-serif" font-size="14" lengthAdjust="spacing" textLength="121" x="22" y="192.0352">Configuration file</text></g><!--entity vars--><g id="elem_vars"><rect fill="#F1F1F1" height="46.4883" rx="2.5" ry="2.5" style="stroke:#181818;stroke-width:0.5;" width="128" x="236.5" y="158.5"/><rect fill="#F1F1F1" height="10" style="stroke:#181818;stroke-width:0.5;" width="15" x="344.5" y="163.5"/><rect fill="#F1F1F1" height="2" style="stroke:#181818;stroke-width:0.5;" width="4" x="342.5" y="165.5"/><rect fill="#F1F1F1" height="2" style="stroke:#181818;stroke-width:0.5;" width="4" x="342.5" y="169.5"/><text fill="#000000" font-family="sans-serif" font-size="14" lengthAdjust="spacing" textLength="88" x="251.5" y="192.0352">Variables file</text></g><!--entity svc--><g id="elem_svc"><rect fill="#F1F1F1" height="46.4883" rx="2.5" ry="2.5" style="stroke:#181818;stroke-width:0.5;" width="137" x="748" y="20.5"/><rect fill="#F1F1F1" height="10" style="stroke:#181818;stroke-width:0.5;" width="15" x="865" y="25.5"/><rect fill="#F1F1F1" height="2" style="stroke:#181818;stroke-width:0.5;" width="4" x="863" y="27.5"/><rect fill="#F1F1F1" height="2" style="stroke:#181818;stroke-width:0.5;" width="4" x="863" y="31.5"/><text fill="#000000" font-family="sans-serif" font-size="14" lengthAdjust="spacing" textLength="97" x="763" y="54.0352">Target Service</text></g><!--entity state--><g id="elem_state"><path d="M495,166 L495,197.4883 A2.5,2.5 0 0 0 497.5,199.9883 L571.5,199.9883 A2.5,2.5 0 0 0 574,197.4883 L574,173.5 L564,163.5 L497.5,163.5 A2.5,2.5 0 0 0 495,166 " fill="#F1F1F1" style="stroke:#181818;stroke-width:0.5;"/><path d="M564,163.5 L564,171 A2.5,2.5 0 0 0 566.5,173.5 L574,173.5 " fill="#F1F1F1" style="stroke:#181818;stroke-width:0.5;"/><text fill="#000000" font-family="sans-serif" font-size="14" lengthAdjust="spacing" textLength="59" x="505" y="187.0352">State file</text></g><!--entity statelock--><g id="elem_statelock"><path d="M636,166 L636,197.4883 A2.5,2.5 0 0 0 638.5,199.9883 L744.5,199.9883 A2.5,2.5 0 0 0 747,197.4883 L747,173.5 L737,163.5 L638.5,163.5 A2.5,2.5 0 0 0 636,166 " fill="#F1F1F1" style="stroke:#181818;stroke-width:0.5;"/><path d="M737,163.5 L737,171 A2.5,2.5 0 0 0 739.5,173.5 L747,173.5 " fill="#F1F1F1" style="stroke:#181818;stroke-width:0.5;"/><text fill="#000000" font-family="sans-serif" font-size="14" lengthAdjust="spacing" textLength="91" x="646" y="187.0352">State lock file</text></g><!--link user to config--><g id="link_user_config"><path d="M125.7,57.18 C111.84,69.41 92.67,89.28 84.5,111.5 C79.04,126.35 79.049,138.3158 81.269,152.1458 " fill="none" id="user-to-config" style="stroke:#181818;stroke-width:1.0;"/><polygon fill="#181818" points="82.22,158.07,84.743,148.5498,81.4275,153.1332,76.8441,149.8177,82.22,158.07" style="stroke:#181818;stroke-width:1.0;"/><text fill="#000000" font-family="sans-serif" font-size="13" lengthAdjust="spacing" textLength="171" x="85.5" y="125.0684">1. Create Configuration file</text></g><!--link user to vars--><g id="link_user_vars"><path d="M157.34,65.97 C162.32,71.62 168.19,77.3 174.5,81.5 C208.55,104.16 230.06,85.33 261.5,111.5 C276.2,123.74 284.1189,137.493 290.4089,152.563 " fill="none" id="user-to-vars" style="stroke:#181818;stroke-width:1.0;"/><polygon fill="#181818" points="292.72,158.1,292.9447,148.2537,290.7941,153.4858,285.562,151.3352,292.72,158.1" style="stroke:#181818;stroke-width:1.0;"/><text fill="#000000" font-family="sans-serif" font-size="13" lengthAdjust="spacing" textLength="141" x="277.5" y="125.0684">1. Create Variables file</text></g><!--link user to cli--><g id="link_user_cli"><path d="M157.17,43.5 C168.63,43.5 174.09,43.5 185.55,43.5 " fill="none" id="user-to-cli" style="stroke:#181818;stroke-width:1.0;"/><polygon fill="#181818" points="191.55,43.5,182.55,39.5,186.55,43.5,182.55,47.5,191.55,43.5" style="stroke:#181818;stroke-width:1.0;"/></g><!--link cli to tf--><g id="link_cli_tf"><path d="M294.44,66.83 C312.03,77.19 334.16,88.23 355.75,93.5 C371.51,97.35 486.11,97.81 501.75,93.5 C521.01,88.19 535.3511,80.5277 550.5611,70.1677 " fill="none" id="cli-to-tf" style="stroke:#181818;stroke-width:1.0;"/><polygon fill="#181818" points="555.52,66.79,545.8298,68.5506,551.3875,69.6047,550.3334,75.1625,555.52,66.79" style="stroke:#181818;stroke-width:1.0;"/><text fill="#000000" font-family="sans-serif" font-size="13" lengthAdjust="spacing" textLength="103" x="377.25" y="60.0684">2. Init Terraform</text><text fill="#000000" font-family="sans-serif" font-size="13" lengthAdjust="spacing" textLength="140" x="360.75" y="75.3789">with configuration file</text><text fill="#000000" font-family="sans-serif" font-size="13" lengthAdjust="spacing" textLength="107" x="377.25" y="90.6895">and variables file</text></g><!--link cli to tf--><g id="link_cli_tf"><path d="M327.44,43.5 C387.53,43.5 468.11,43.5 524.09,43.5 " fill="none" id="cli-to-tf-1" style="stroke:#181818;stroke-width:1.0;"/><polygon fill="#181818" points="530.09,43.5,521.09,39.5,525.09,43.5,521.09,47.5,530.09,43.5" style="stroke:#181818;stroke-width:1.0;"/><text fill="#000000" font-family="sans-serif" font-size="13" lengthAdjust="spacing" textLength="167" x="345.25" y="37.0684">4. Apply Configuration file</text></g><!--link tf to statelock--><g id="link_tf_statelock"><path d="M611.05,66.92 C624.31,79.3 640.26,95.39 652.5,111.5 C664.99,127.93 673.5646,143.4245 680.7346,157.8845 " fill="none" id="tf-to-statelock" style="stroke:#181818;stroke-width:1.0;"/><polygon fill="#181818" points="683.4,163.26,682.9855,153.4199,681.1788,158.7805,675.8182,156.9738,683.4,163.26" style="stroke:#181818;stroke-width:1.0;"/><text fill="#000000" font-family="sans-serif" font-size="13" lengthAdjust="spacing" textLength="146" x="664.5" y="125.0684">3. Create state lock file</text></g><!--link tf to svc--><g id="link_tf_svc"><path d="M640.83,43.5 C672.86,43.5 707.47,43.5 741.56,43.5 " fill="none" id="tf-to-svc" style="stroke:#181818;stroke-width:1.0;"/><polygon fill="#181818" points="747.56,43.5,738.56,39.5,742.56,43.5,738.56,47.5,747.56,43.5" style="stroke:#181818;stroke-width:1.0;"/><text fill="#000000" font-family="sans-serif" font-size="13" lengthAdjust="spacing" textLength="71" x="658.75" y="37.0684">5. Call APIs</text></g><!--link tf to state--><g id="link_tf_state"><path d="M561.02,66.82 C549.7,78.82 537.46,94.59 531.5,111.5 C525.56,128.35 526.4353,143.0645 529.1353,157.3445 " fill="none" id="tf-to-state" style="stroke:#181818;stroke-width:1.0;"/><polygon fill="#181818" points="530.25,163.24,532.5083,153.6535,529.3211,158.327,524.6476,155.1398,530.25,163.24" style="stroke:#181818;stroke-width:1.0;"/><text fill="#000000" font-family="sans-serif" font-size="13" lengthAdjust="spacing" textLength="115" x="532.5" y="125.0684">6. Create state file</text></g><!--SRC=[RP0_JyCm4CNtV8fJ69WQYRz3XaXLfaWCY08Jos7iriAre_CrY6zFx4I9NRhPVZ-_T-zGi2Cetxoa4j33QJmKmXrxPwLbA5yb4If7HsYVkaW8eoy2KMILQgspIkzFXAoT1QMDd1pYSmg-8sdyDDAlq83ainoalMJOIHgqc10_Y2BmKEuOMQv_VRXcad7Y-qmFJqLnVGKlqiG1_K7tlWWBWCsccQUiuQQ2bcGm-LzdfSEuAPitchbcMfxHuSYgXjiAEgiPbYL-MFZHV9Z3qwXHGViLSb9VLZ5zALJ3tJA2pvkdkVSLRFlU_5wg52oRiDiQ7aOlD0QspvtFecfuF8k9N_y0]--></g></svg>